# Blender v2.76 (sub 0) OBJ File: ''
# www.blender.org
mtllib powerfist.mtl
o palm
v 0.231557 -0.187500 0.312500
v 0.669057 -0.187500 0.312500
v 0.669057 0.062500 0.312500
v 0.231557 0.062500 0.312500
v 0.669057 -0.187500 0.625000
v 0.231557 -0.187500 0.625000
v 0.231557 0.062500 0.625000
v 0.669057 0.062500 0.625000
vt 0.4688 0.7188
vt 0.4688 0.8438
vt 0.3594 0.8438
vt 0.3594 0.7188
vt 0.6562 0.7188
vt 0.6562 0.8438
vt 0.5469 0.8438
vt 0.5469 0.7188
vt 0.4688 1.0000
vt 0.3594 1.0000
vt 0.5781 0.8438
vt 0.5781 1.0000
vt 0.4688 1.0000
vt 0.4688 0.8438
vt 0.2812 0.8438
vt 0.2812 0.7188
vn 0.0000 0.0000 -1.0000
vn 0.0000 0.0000 1.0000
vn 0.0000 1.0000 0.0000
vn 0.0000 -1.0000 -0.0000
vn -1.0000 0.0000 0.0000
vn 1.0000 0.0000 0.0000
usemtl initialShadingGroup
f 1/1/1 4/2/1 3/3/1 2/4/1
f 5/5/2 8/6/2 7/7/2 6/8/2
f 4/2/3 7/9/3 8/10/3 3/3/3
f 6/11/4 1/12/4 2/13/4 5/14/4
f 6/8/5 7/7/5 4/2/5 1/1/5
f 2/4/6 3/3/6 8/15/6 5/16/6
o supportbaseright
v 0.570932 -0.228014 -0.288309
v 0.758432 -0.228014 -0.288309
v 0.758432 -0.046903 -0.336838
v 0.570932 -0.046903 -0.336838
v 0.758432 -0.147133 0.013542
v 0.570932 -0.147133 0.013542
v 0.570932 0.033978 -0.034986
v 0.758432 0.033978 -0.034986
vt 0.8594 0.0938
vt 0.8594 0.1875
vt 0.8125 0.1875
vt 0.8125 0.0938
vt 0.9844 0.0938
vt 0.9844 0.1875
vt 0.9375 0.1875
vt 0.9375 0.0938
vt 0.8594 0.3438
vt 0.8125 0.3438
vt 0.9062 0.1875
vt 0.9062 0.3438
vt 0.8594 0.3438
vt 0.8594 0.1875
vt 0.7344 0.1875
vt 0.7344 0.0938
vn 0.0000 -0.2588 -0.9659
vn 0.0000 0.2588 0.9659
vn 0.0000 0.9659 -0.2588
vn 0.0000 -0.9659 0.2588
vn -1.0000 0.0000 0.0000
vn 1.0000 0.0000 0.0000
usemtl initialShadingGroup
f 9/17/7 12/18/7 11/19/7 10/20/7
f 13/21/8 16/22/8 15/23/8 14/24/8
f 12/18/9 15/25/9 16/26/9 11/19/9
f 14/27/10 9/28/10 10/29/10 13/30/10
f 14/24/11 15/23/11 12/18/11 9/17/11
f 10/20/12 11/19/12 16/31/12 13/32/12
o supportleft5
v 0.137565 -0.125000 0.275740
v 0.316793 -0.125000 0.450031
v 0.316793 -0.062500 0.450031
v 0.137565 -0.062500 0.275740
v 0.273220 -0.125000 0.494838
v 0.093992 -0.125000 0.320547
v 0.093992 -0.062500 0.320547
v 0.273220 -0.062500 0.494838
vt 0.9219 0.0938
vt 0.9219 0.1250
vt 0.8594 0.1250
vt 0.8594 0.0938
vt 1.0000 0.0938
vt 1.0000 0.1250
vt 0.9375 0.1250
vt 0.9375 0.0938
vt 0.9219 0.1562
vt 0.8594 0.1562
vt 0.9844 0.1250
vt 0.9844 0.1562
vt 0.9219 0.1562
vt 0.9219 0.1250
vt 0.8438 0.1250
vt 0.8438 0.0938
vn 0.6972 0.0000 -0.7169
vn -0.6972 0.0000 0.7169
vn 0.0000 1.0000 0.0000
vn 0.0000 -1.0000 -0.0000
vn -0.7169 0.0000 -0.6972
vn 0.7169 0.0000 0.6972
usemtl initialShadingGroup
f 17/33/13 20/34/13 19/35/13 18/36/13
f 21/37/14 24/38/14 23/39/14 22/40/14
f 20/34/15 23/41/15 24/42/15 19/35/15
f 22/43/16 17/44/16 18/45/16 21/46/16
f 22/40/17 23/39/17 20/34/17 17/33/17
f 18/36/18 19/35/18 24/47/18 21/48/18
o supportleft4
v 0.059322 -0.154375 0.277120
v 0.175915 -0.154375 0.232053
v 0.175915 -0.029375 0.232053
v 0.059322 -0.029375 0.277120
v 0.198449 -0.154375 0.290349
v 0.081856 -0.154375 0.335417
v 0.081856 -0.029375 0.335417
v 0.198449 -0.029375 0.290349
vt 0.8594 0.2500
vt 0.8594 0.3125
vt 0.8281 0.3125
vt 0.8281 0.2500
vt 0.9062 0.2500
vt 0.9062 0.3125
vt 0.8750 0.3125
vt 0.8750 0.2500
vt 0.8594 0.3438
vt 0.8281 0.3438
vt 0.8906 0.3125
vt 0.8906 0.3438
vt 0.8594 0.3438
vt 0.8594 0.3125
vt 0.8125 0.3125
vt 0.8125 0.2500
vn -0.3605 0.0000 -0.9327
vn 0.3605 0.0000 0.9327
vn -0.0000 1.0000 0.0000
vn 0.0000 -1.0000 0.0000
vn -0.9327 0.0000 0.3605
vn 0.9327 0.0000 -0.3605
usemtl initialShadingGroup
f 25/49/19 28/50/19 27/51/19 26/52/19
f 29/53/20 32/54/20 31/55/20 30/56/20
f 28/50/21 31/57/21 32/58/21 27/51/21
f 30/59/22 25/60/22 26/61/22 29/62/22
f 30/56/23 31/55/23 28/50/23 25/49/23
f 26/52/24 27/51/24 32/63/24 29/64/24
o supportleft3
v 0.075307 -0.125000 -0.031250
v 0.137807 -0.125000 -0.031250
v 0.137807 -0.062500 -0.031250
v 0.075307 -0.062500 -0.031250
v 0.137807 -0.125000 0.281250
v 0.075307 -0.125000 0.281250
v 0.075307 -0.062500 0.281250
v 0.137807 -0.062500 0.281250
vt 0.9062 0.1562
vt 0.9062 0.1875
vt 0.8906 0.1875
vt 0.8906 0.1562
vt 1.0000 0.1562
vt 1.0000 0.1875
vt 0.9844 0.1875
vt 0.9844 0.1562
vt 0.9062 0.3438
vt 0.8906 0.3438
vt 0.9219 0.1875
vt 0.9219 0.3438
vt 0.9062 0.3438
vt 0.9062 0.1875
vt 0.8125 0.1875
vt 0.8125 0.1562
vn 0.0000 0.0000 -1.0000
vn 0.0000 0.0000 1.0000
vn 0.0000 1.0000 0.0000
vn 0.0000 -1.0000 -0.0000
vn -1.0000 0.0000 0.0000
vn 1.0000 0.0000 0.0000
usemtl initialShadingGroup
f 33/65/25 36/66/25 35/67/25 34/68/25
f 37/69/26 40/70/26 39/71/26 38/72/26
f 36/66/27 39/73/27 40/74/27 35/67/27
f 38/75/28 33/76/28 34/77/28 37/78/28
f 38/72/29 39/71/29 36/66/29 33/65/29
f 34/68/30 35/67/30 40/79/30 37/80/30
o supportleft2
v 0.086776 -0.154375 -0.095849
v 0.187560 -0.154375 -0.021906
v 0.187560 -0.029375 -0.021906
v 0.086776 -0.029375 -0.095849
v 0.150589 -0.154375 0.028486
v 0.049804 -0.154375 -0.045457
v 0.049804 -0.029375 -0.045457
v 0.150589 -0.029375 0.028486
vt 0.8594 0.2500
vt 0.8594 0.3125
vt 0.8281 0.3125
vt 0.8281 0.2500
vt 0.9062 0.2500
vt 0.9062 0.3125
vt 0.8750 0.3125
vt 0.8750 0.2500
vt 0.8594 0.3438
vt 0.8281 0.3438
vt 0.8906 0.3125
vt 0.8906 0.3438
vt 0.8594 0.3438
vt 0.8594 0.3125
vt 0.8125 0.3125
vt 0.8125 0.2500
vn 0.5915 0.0000 -0.8063
vn -0.5915 -0.0000 0.8063
vn -0.0000 1.0000 0.0000
vn 0.0000 -1.0000 0.0000
vn -0.8063 0.0000 -0.5915
vn 0.8063 -0.0000 0.5915
usemtl initialShadingGroup
f 41/81/31 44/82/31 43/83/31 42/84/31
f 45/85/32 48/86/32 47/87/32 46/88/32
f 44/82/33 47/89/33 48/90/33 43/83/33
f 46/91/34 41/92/34 42/93/34 45/94/34
f 46/88/35 47/87/35 44/82/35 41/81/35
f 42/84/36 43/83/36 48/95/36 45/96/36
o supportleft1
v 0.102760 -0.134412 -0.051811
v 0.223453 -0.134412 -0.270747
v 0.209287 -0.074041 -0.278556
v 0.088594 -0.074041 -0.059620
v 0.276322 -0.118236 -0.241602
v 0.155629 -0.118236 -0.022665
v 0.141463 -0.057865 -0.030475
v 0.262156 -0.057865 -0.249411
vt 0.9219 0.0938
vt 0.9219 0.1250
vt 0.8594 0.1250
vt 0.8594 0.0938
vt 1.0000 0.0938
vt 1.0000 0.1250
vt 0.9375 0.1250
vt 0.9375 0.0938
vt 0.9219 0.1562
vt 0.8594 0.1562
vt 0.9844 0.1250
vt 0.9844 0.1562
vt 0.9219 0.1562
vt 0.9219 0.1250
vt 0.8438 0.1250
vt 0.8438 0.0938
vn -0.8459 -0.2588 -0.4663
vn 0.8459 0.2588 0.4663
vn -0.2267 0.9659 -0.1249
vn 0.2267 -0.9659 0.1249
vn -0.4828 0.0000 0.8757
vn 0.4828 0.0000 -0.8757
usemtl initialShadingGroup
f 49/97/37 52/98/37 51/99/37 50/100/37
f 53/101/38 56/102/38 55/103/38 54/104/38
f 52/98/39 55/105/39 56/106/39 51/99/39
f 54/107/40 49/108/40 50/109/40 53/110/40
f 54/104/41 55/103/41 52/98/41 49/97/41
f 50/100/42 51/99/42 56/111/42 53/112/42
o supportrightfront
v 0.625307 -0.145625 0.291667
v 0.687807 -0.145625 0.291667
v 0.687807 -0.020625 0.291667
v 0.625307 -0.020625 0.291667
v 0.687807 -0.145625 0.479167
v 0.625307 -0.145625 0.479167
v 0.625307 -0.020625 0.479167
v 0.687807 -0.020625 0.479167
vt 0.8281 0.1250
vt 0.8281 0.1875
vt 0.8125 0.1875
vt 0.8125 0.1250
vt 0.8906 0.1250
vt 0.8906 0.1875
vt 0.8750 0.1875
vt 0.8750 0.1250
vt 0.8281 0.2812
vt 0.8125 0.2812
vt 0.8438 0.1875
vt 0.8438 0.2812
vt 0.8281 0.2812
vt 0.8281 0.1875
vt 0.7656 0.1875
vt 0.7656 0.1250
vn 0.0000 0.0000 -1.0000
vn 0.0000 0.0000 1.0000
vn 0.0000 1.0000 0.0000
vn 0.0000 -1.0000 0.0000
vn -1.0000 0.0000 0.0000
vn 1.0000 0.0000 0.0000
usemtl initialShadingGroup
f 57/113/43 60/114/43 59/115/43 58/116/43
f 61/117/44 64/118/44 63/119/44 62/120/44
f 60/114/45 63/121/45 64/122/45 59/115/45
f 62/123/46 57/124/46 58/125/46 61/126/46
f 62/120/47 63/119/47 60/114/47 57/113/47
f 58/116/48 59/115/48 64/127/48 61/128/48
o supportleftfront
v 0.210932 -0.145625 0.291667
v 0.273432 -0.145625 0.291667
v 0.273432 -0.020625 0.291667
v 0.210932 -0.020625 0.291667
v 0.273432 -0.145625 0.479167
v 0.210932 -0.145625 0.479167
v 0.210932 -0.020625 0.479167
v 0.273432 -0.020625 0.479167
vt 0.8281 0.1250
vt 0.8281 0.1875
vt 0.8125 0.1875
vt 0.8125 0.1250
vt 0.8906 0.1250
vt 0.8906 0.1875
vt 0.8750 0.1875
vt 0.8750 0.1250
vt 0.8281 0.2812
vt 0.8125 0.2812
vt 0.8438 0.1875
vt 0.8438 0.2812
vt 0.8281 0.2812
vt 0.8281 0.1875
vt 0.7656 0.1875
vt 0.7656 0.1250
vn 0.0000 0.0000 -1.0000
vn 0.0000 0.0000 1.0000
vn 0.0000 1.0000 0.0000
vn 0.0000 -1.0000 0.0000
vn -1.0000 0.0000 0.0000
vn 1.0000 0.0000 0.0000
usemtl initialShadingGroup
f 65/129/49 68/130/49 67/131/49 66/132/49
f 69/133/50 72/134/50 71/135/50 70/136/50
f 68/130/51 71/137/51 72/138/51 67/131/51
f 70/139/52 65/140/52 66/141/52 69/142/52
f 70/136/53 71/135/53 68/130/53 65/129/53
f 66/132/54 67/131/54 72/143/54 69/144/54
o supportbaseleft
v 0.206557 -0.228014 -0.288309
v 0.394057 -0.228014 -0.288309
v 0.394057 -0.046903 -0.336838
v 0.206557 -0.046903 -0.336838
v 0.394057 -0.147133 0.013542
v 0.206557 -0.147133 0.013542
v 0.206557 0.033978 -0.034986
v 0.394057 0.033978 -0.034986
vt 0.8594 0.0938
vt 0.8594 0.1875
vt 0.8125 0.1875
vt 0.8125 0.0938
vt 0.9844 0.0938
vt 0.9844 0.1875
vt 0.9375 0.1875
vt 0.9375 0.0938
vt 0.8594 0.3438
vt 0.8125 0.3438
vt 0.9062 0.1875
vt 0.9062 0.3438
vt 0.8594 0.3438
vt 0.8594 0.1875
vt 0.7344 0.1875
vt 0.7344 0.0938
vn 0.0000 -0.2588 -0.9659
vn 0.0000 0.2588 0.9659
vn 0.0000 0.9659 -0.2588
vn 0.0000 -0.9659 0.2588
vn -1.0000 -0.0000 0.0000
vn 1.0000 0.0000 0.0000
usemtl initialShadingGroup
f 73/145/55 76/146/55 75/147/55 74/148/55
f 77/149/56 80/150/56 79/151/56 78/152/56
f 76/146/57 79/153/57 80/154/57 75/147/57
f 78/155/58 73/156/58 74/157/58 77/158/58
f 78/152/59 79/151/59 76/146/59 73/145/59
f 74/148/60 75/147/60 80/159/60 77/160/60
o supportright5
v 0.628777 -0.125000 0.408682
v 0.808005 -0.125000 0.234390
v 0.808005 -0.062500 0.234390
v 0.628777 -0.062500 0.408682
v 0.851578 -0.125000 0.279197
v 0.672350 -0.125000 0.453489
v 0.672350 -0.062500 0.453489
v 0.851578 -0.062500 0.279197
vt 0.9219 0.0938
vt 0.9219 0.1250
vt 0.8594 0.1250
vt 0.8594 0.0938
vt 1.0000 0.0938
vt 1.0000 0.1250
vt 0.9375 0.1250
vt 0.9375 0.0938
vt 0.9219 0.1562
vt 0.8594 0.1562
vt 0.9844 0.1250
vt 0.9844 0.1562
vt 0.9219 0.1562
vt 0.9219 0.1250
vt 0.8438 0.1250
vt 0.8438 0.0938
vn -0.6972 0.0000 -0.7169
vn 0.6972 0.0000 0.7169
vn 0.0000 1.0000 0.0000
vn 0.0000 -1.0000 0.0000
vn -0.7169 0.0000 0.6972
vn 0.7169 0.0000 -0.6972
usemtl initialShadingGroup
f 81/161/61 84/162/61 83/163/61 82/164/61
f 85/165/62 88/166/62 87/167/62 86/168/62
f 84/162/63 87/169/63 88/170/63 83/163/63
f 86/171/64 81/172/64 82/173/64 85/174/64
f 86/168/65 87/167/65 84/162/65 81/161/65
f 82/164/66 83/163/66 88/175/66 85/176/66
o supportright4
v 0.771460 -0.154375 0.225967
v 0.888054 -0.154375 0.271034
v 0.888054 -0.029375 0.271034
v 0.771460 -0.029375 0.225967
v 0.865520 -0.154375 0.329331
v 0.748927 -0.154375 0.284264
v 0.748927 -0.029375 0.284264
v 0.865520 -0.029375 0.329331
vt 0.8594 0.2500
vt 0.8594 0.3125
vt 0.8281 0.3125
vt 0.8281 0.2500
vt 0.9062 0.2500
vt 0.9062 0.3125
vt 0.8750 0.3125
vt 0.8750 0.2500
vt 0.8594 0.3438
vt 0.8281 0.3438
vt 0.8906 0.3125
vt 0.8906 0.3438
vt 0.8594 0.3438
vt 0.8594 0.3125
vt 0.8125 0.3125
vt 0.8125 0.2500
vn 0.3605 0.0000 -0.9327
vn -0.3605 0.0000 0.9327
vn -0.0000 1.0000 0.0000
vn 0.0000 -1.0000 0.0000
vn -0.9327 0.0000 -0.3605
vn 0.9327 0.0000 0.3605
usemtl initialShadingGroup
f 89/177/67 92/178/67 91/179/67 90/180/67
f 93/181/68 96/182/68 95/183/68 94/184/68
f 92/178/69 95/185/69 96/186/69 91/179/69
f 94/187/70 89/188/70 90/189/70 93/190/70
f 94/184/71 95/183/71 92/178/71 89/177/71
f 90/180/72 91/179/72 96/191/72 93/192/72
o supportright3
v 0.800307 -0.125000 -0.052083
v 0.862807 -0.125000 -0.052083
v 0.862807 -0.062500 -0.052083
v 0.800307 -0.062500 -0.052083
v 0.862807 -0.125000 0.260417
v 0.800307 -0.125000 0.260417
v 0.800307 -0.062500 0.260417
v 0.862807 -0.062500 0.260417
vt 0.9062 0.1562
vt 0.9062 0.1875
vt 0.8906 0.1875
vt 0.8906 0.1562
vt 1.0000 0.1562
vt 1.0000 0.1875
vt 0.9844 0.1875
vt 0.9844 0.1562
vt 0.9062 0.3438
vt 0.8906 0.3438
vt 0.9219 0.1875
vt 0.9219 0.3438
vt 0.9062 0.3438
vt 0.9062 0.1875
vt 0.8125 0.1875
vt 0.8125 0.1562
vn 0.0000 0.0000 -1.0000
vn 0.0000 0.0000 1.0000
vn 0.0000 1.0000 0.0000
vn 0.0000 -1.0000 -0.0000
vn -1.0000 0.0000 0.0000
vn 1.0000 0.0000 0.0000
usemtl initialShadingGroup
f 97/193/73 100/194/73 99/195/73 98/196/73
f 101/197/74 104/198/74 103/199/74 102/200/74
f 100/194/75 103/201/75 104/202/75 99/195/75
f 102/203/76 97/204/76 98/205/76 101/206/76
f 102/200/77 103/199/77 100/194/77 97/193/77
f 98/196/78 99/195/78 104/207/78 101/208/78
o supportright2
v 0.775553 -0.154375 -0.021923
v 0.876332 -0.154375 -0.095872
v 0.876332 -0.029375 -0.095872
v 0.775553 -0.029375 -0.021923
v 0.913307 -0.154375 -0.045482
v 0.812527 -0.154375 0.028467
v 0.812527 -0.029375 0.028467
v 0.913307 -0.029375 -0.045482
vt 0.8594 0.2500
vt 0.8594 0.3125
vt 0.8281 0.3125
vt 0.8281 0.2500
vt 0.9062 0.2500
vt 0.9062 0.3125
vt 0.8750 0.3125
vt 0.8750 0.2500
vt 0.8594 0.3438
vt 0.8281 0.3438
vt 0.8906 0.3125
vt 0.8906 0.3438
vt 0.8594 0.3438
vt 0.8594 0.3125
vt 0.8125 0.3125
vt 0.8125 0.2500
vn -0.5916 -0.0000 -0.8062
vn 0.5916 -0.0000 0.8062
vn 0.0000 1.0000 0.0000
vn 0.0000 -1.0000 0.0000
vn -0.8062 0.0000 0.5916
vn 0.8062 -0.0000 -0.5916
usemtl initialShadingGroup
f 105/209/79 108/210/79 107/211/79 106/212/79
f 109/213/80 112/214/80 111/215/80 110/216/80
f 108/210/81 111/217/81 112/218/81 107/211/81
f 110/219/82 105/220/82 106/221/82 109/222/82
f 110/216/83 111/215/83 108/210/83 105/209/83
f 106/212/84 107/211/84 112/223/84 109/224/84
o supportright1
v 0.744283 -0.114061 -0.273319
v 0.864989 -0.114061 -0.054390
v 0.879707 -0.053863 -0.062505
v 0.759001 -0.053863 -0.281434
v 0.812272 -0.097253 -0.025325
v 0.691566 -0.097253 -0.244254
v 0.706285 -0.037056 -0.252369
v 0.826991 -0.037056 -0.033440
vt 0.9219 0.0938
vt 0.9219 0.1250
vt 0.8594 0.1250
vt 0.8594 0.0938
vt 1.0000 0.0938
vt 1.0000 0.1250
vt 0.9375 0.1250
vt 0.9375 0.0938
vt 0.9219 0.1562
vt 0.8594 0.1562
vt 0.9844 0.1250
vt 0.9844 0.1562
vt 0.9219 0.1562
vt 0.9219 0.1250
vt 0.8438 0.1250
vt 0.8438 0.0938
vn 0.8435 -0.2689 -0.4650
vn -0.8435 0.2689 0.4650
vn 0.2355 0.9632 -0.1298
vn -0.2355 -0.9632 0.1298
vn -0.4828 0.0000 -0.8757
vn 0.4828 0.0000 0.8757
usemtl initialShadingGroup
f 113/225/85 116/226/85 115/227/85 114/228/85
f 117/229/86 120/230/86 119/231/86 118/232/86
f 116/226/87 119/233/87 120/234/87 115/227/87
f 118/235/88 113/236/88 114/237/88 117/238/88
f 118/232/89 119/231/89 116/226/89 113/225/89
f 114/228/90 115/227/90 120/239/90 117/240/90
o crystal
v 0.419057 0.000000 -0.125000
v 0.544057 0.000000 -0.125000
v 0.544057 0.125000 -0.125000
v 0.419057 0.125000 -0.125000
v 0.544057 0.000000 0.000000
v 0.419057 0.000000 0.000000
v 0.419057 0.125000 0.000000
v 0.544057 0.125000 0.000000
vt 0.5625 0.0312
vt 0.5625 0.0938
vt 0.5312 0.0938
vt 0.5312 0.0312
vt 0.6250 0.0312
vt 0.6250 0.0938
vt 0.5938 0.0938
vt 0.5938 0.0312
vt 0.5625 0.1562
vt 0.5312 0.1562
vt 0.5938 0.0938
vt 0.5938 0.1562
vt 0.5625 0.1562
vt 0.5625 0.0938
vt 0.5000 0.0938
vt 0.5000 0.0312
vn 0.0000 0.0000 -1.0000
vn 0.0000 -0.0000 1.0000
vn 0.0000 1.0000 0.0000
vn 0.0000 -1.0000 -0.0000
vn -1.0000 -0.0000 0.0000
vn 1.0000 0.0000 0.0000
usemtl initialShadingGroup
f 121/241/91 124/242/91 123/243/91 122/244/91
f 125/245/92 128/246/92 127/247/92 126/248/92
f 124/242/93 127/249/93 128/250/93 123/243/93
f 126/251/94 121/252/94 122/253/94 125/254/94
f 126/248/95 127/247/95 124/242/95 121/241/95
f 122/244/96 123/243/96 128/255/96 125/256/96
o crystalholder
v 0.356557 -0.187500 -0.187500
v 0.606557 -0.187500 -0.187500
v 0.606557 0.062500 -0.187500
v 0.356557 0.062500 -0.187500
v 0.606557 -0.187500 0.062500
v 0.356557 -0.187500 0.062500
v 0.356557 0.062500 0.062500
v 0.606557 0.062500 0.062500
vt 0.8750 0.3438
vt 0.8750 0.4688
vt 0.8125 0.4688
vt 0.8125 0.3438
vt 1.0000 0.3438
vt 1.0000 0.4688
vt 0.9375 0.4688
vt 0.9375 0.3438
vt 0.8750 0.5938
vt 0.8125 0.5938
vt 0.9375 0.4688
vt 0.9375 0.5938
vt 0.8750 0.5938
vt 0.8750 0.4688
vt 0.7500 0.4688
vt 0.7500 0.3438
vn 0.0000 0.0000 -1.0000
vn 0.0000 -0.0000 1.0000
vn 0.0000 1.0000 0.0000
vn 0.0000 -1.0000 -0.0000
vn -1.0000 0.0000 0.0000
vn 1.0000 0.0000 0.0000
usemtl initialShadingGroup
f 129/257/97 132/258/97 131/259/97 130/260/97
f 133/261/98 136/262/98 135/263/98 134/264/98
f 132/258/99 135/265/99 136/266/99 131/259/99
f 134/267/100 129/268/100 130/269/100 133/270/100
f 134/264/101 135/263/101 132/258/101 129/257/101
f 130/260/102 131/259/102 136/271/102 133/272/102
o fingerguard
v 0.294057 -0.000000 0.506250
v 0.606557 -0.000000 0.506250
v 0.606557 0.125000 0.506250
v 0.294057 0.125000 0.506250
v 0.606557 -0.000000 0.631250
v 0.294057 -0.000000 0.631250
v 0.294057 0.125000 0.631250
v 0.606557 0.125000 0.631250
vt 0.5469 0.5938
vt 0.5469 0.6562
vt 0.4688 0.6562
vt 0.4688 0.5938
vt 0.6562 0.5938
vt 0.6562 0.6562
vt 0.5781 0.6562
vt 0.5781 0.5938
vt 0.5469 0.7188
vt 0.4688 0.7188
vt 0.6250 0.6562
vt 0.6250 0.7188
vt 0.5469 0.7188
vt 0.5469 0.6562
vt 0.4375 0.6562
vt 0.4375 0.5938
vn 0.0000 0.0000 -1.0000
vn 0.0000 0.0000 1.0000
vn 0.0000 1.0000 0.0000
vn 0.0000 -1.0000 -0.0000
vn -1.0000 0.0000 0.0000
vn 1.0000 0.0000 0.0000
usemtl initialShadingGroup
f 137/273/103 140/274/103 139/275/103 138/276/103
f 141/277/104 144/278/104 143/279/104 142/280/104
f 140/274/105 143/281/105 144/282/105 139/275/105
f 142/283/106 137/284/106 138/285/106 141/286/106
f 142/280/107 143/279/107 140/274/107 137/273/107
f 138/276/108 139/275/108 144/287/108 141/288/108
o wristbottomleft
v 0.356557 -0.209129 0.185445
v 0.419057 -0.209129 0.185445
v 0.419057 -0.148759 0.169269
v 0.356557 -0.148759 0.169269
v 0.419057 -0.144424 0.426927
v 0.356557 -0.144424 0.426927
v 0.356557 -0.084054 0.410751
v 0.419057 -0.084054 0.410751
vt 0.0781 0.5000
vt 0.0781 0.5312
vt 0.0625 0.5312
vt 0.0625 0.5000
vt 0.1562 0.5000
vt 0.1562 0.5312
vt 0.1406 0.5312
vt 0.1406 0.5000
vt 0.0781 0.6562
vt 0.0625 0.6562
vt 0.0938 0.5312
vt 0.0938 0.6562
vt 0.0781 0.6562
vt 0.0781 0.5312
vt 0.0000 0.5312
vt 0.0000 0.5000
vn 0.0000 -0.2588 -0.9659
vn 0.0000 0.2588 0.9659
vn 0.0000 0.9659 -0.2588
vn 0.0000 -0.9659 0.2588
vn -1.0000 0.0000 0.0000
vn 1.0000 -0.0000 0.0000
usemtl initialShadingGroup
f 145/289/109 148/290/109 147/291/109 146/292/109
f 149/293/110 152/294/110 151/295/110 150/296/110
f 148/290/111 151/297/111 152/298/111 147/291/111
f 150/299/112 145/300/112 146/301/112 149/302/112
f 150/296/113 151/295/113 148/290/113 145/289/113
f 146/292/114 147/291/114 152/303/114 149/304/114
o wristbottomright
v 0.544057 -0.209129 0.185445
v 0.606557 -0.209129 0.185445
v 0.606557 -0.148759 0.169269
v 0.544057 -0.148759 0.169269
v 0.606557 -0.144424 0.426927
v 0.544057 -0.144424 0.426927
v 0.544057 -0.084054 0.410751
v 0.606557 -0.084054 0.410751
vt 0.0781 0.5000
vt 0.0781 0.5312
vt 0.0625 0.5312
vt 0.0625 0.5000
vt 0.1562 0.5000
vt 0.1562 0.5312
vt 0.1406 0.5312
vt 0.1406 0.5000
vt 0.0781 0.6562
vt 0.0625 0.6562
vt 0.0938 0.5312
vt 0.0938 0.6562
vt 0.0781 0.6562
vt 0.0781 0.5312
vt 0.0000 0.5312
vt 0.0000 0.5000
vn 0.0000 -0.2588 -0.9659
vn 0.0000 0.2588 0.9659
vn 0.0000 0.9659 -0.2588
vn 0.0000 -0.9659 0.2588
vn -1.0000 -0.0000 0.0000
vn 1.0000 0.0000 0.0000
usemtl initialShadingGroup
f 153/305/115 156/306/115 155/307/115 154/308/115
f 157/309/116 160/310/116 159/311/116 158/312/116
f 156/306/117 159/313/117 160/314/117 155/307/117
f 158/315/118 153/316/118 154/317/118 157/318/118
f 158/312/119 159/311/119 156/306/119 153/305/119
f 154/308/120 155/307/120 160/319/120 157/320/120
o wristtopleft
v 0.356557 -0.088388 0.153093
v 0.419057 -0.088388 0.153093
v 0.419057 -0.028018 0.136917
v 0.356557 -0.028018 0.136917
v 0.419057 -0.023684 0.394575
v 0.356557 -0.023684 0.394575
v 0.356557 0.036687 0.378398
v 0.419057 0.036687 0.378398
vt 0.0781 0.5000
vt 0.0781 0.5312
vt 0.0625 0.5312
vt 0.0625 0.5000
vt 0.1562 0.5000
vt 0.1562 0.5312
vt 0.1406 0.5312
vt 0.1406 0.5000
vt 0.0781 0.6562
vt 0.0625 0.6562
vt 0.0938 0.5312
vt 0.0938 0.6562
vt 0.0781 0.6562
vt 0.0781 0.5312
vt 0.0000 0.5312
vt 0.0000 0.5000
vn 0.0000 -0.2588 -0.9659
vn 0.0000 0.2588 0.9659
vn 0.0000 0.9659 -0.2588
vn 0.0000 -0.9659 0.2588
vn -1.0000 0.0000 0.0000
vn 1.0000 -0.0000 0.0000
usemtl initialShadingGroup
f 161/321/121 164/322/121 163/323/121 162/324/121
f 165/325/122 168/326/122 167/327/122 166/328/122
f 164/322/123 167/329/123 168/330/123 163/323/123
f 166/331/124 161/332/124 162/333/124 165/334/124
f 166/328/125 167/327/125 164/322/125 161/321/125
f 162/324/126 163/323/126 168/335/126 165/336/126
o wristtopright
v 0.544057 -0.088388 0.153093
v 0.606557 -0.088388 0.153093
v 0.606557 -0.028018 0.136917
v 0.544057 -0.028018 0.136917
v 0.606557 -0.023684 0.394575
v 0.544057 -0.023684 0.394575
v 0.544057 0.036687 0.378398
v 0.606557 0.036687 0.378398
vt 0.0781 0.5000
vt 0.0781 0.5312
vt 0.0625 0.5312
vt 0.0625 0.5000
vt 0.1562 0.5000
vt 0.1562 0.5312
vt 0.1406 0.5312
vt 0.1406 0.5000
vt 0.0781 0.6562
vt 0.0625 0.6562
vt 0.0938 0.5312
vt 0.0938 0.6562
vt 0.0781 0.6562
vt 0.0781 0.5312
vt 0.0000 0.5312
vt 0.0000 0.5000
vn 0.0000 -0.2588 -0.9659
vn 0.0000 0.2588 0.9659
vn 0.0000 0.9659 -0.2588
vn 0.0000 -0.9659 0.2588
vn -1.0000 0.0000 0.0000
vn 1.0000 0.0000 0.0000
usemtl initialShadingGroup
f 169/337/127 172/338/127 171/339/127 170/340/127
f 173/341/128 176/342/128 175/343/128 174/344/128
f 172/338/129 175/345/129 176/346/129 171/339/129
f 174/347/130 169/348/130 170/349/130 173/350/130
f 174/344/131 175/343/131 172/338/131 169/337/131
f 170/340/132 171/339/132 176/351/132 173/352/132
o armorleft
v 0.231557 -0.387067 -0.478629
v 0.419057 -0.387067 -0.478629
v 0.419057 -0.085215 -0.559509
v 0.231557 -0.085215 -0.559509
v 0.419057 -0.257658 0.004334
v 0.231557 -0.257658 0.004334
v 0.231557 0.044194 -0.076547
v 0.419057 0.044194 -0.076547
vt 0.8281 0.5938
vt 0.8281 0.7500
vt 0.7812 0.7500
vt 0.7812 0.5938
vt 1.0000 0.5938
vt 1.0000 0.7500
vt 0.9531 0.7500
vt 0.9531 0.5938
vt 0.8281 1.0000
vt 0.7812 1.0000
vt 0.8750 0.7500
vt 0.8750 1.0000
vt 0.8281 1.0000
vt 0.8281 0.7500
vt 0.6562 0.7500
vt 0.6562 0.5938
vn 0.0000 -0.2588 -0.9659
vn 0.0000 0.2588 0.9659
vn 0.0000 0.9659 -0.2588
vn 0.0000 -0.9659 0.2588
vn -1.0000 -0.0000 0.0000
vn 1.0000 0.0000 0.0000
usemtl initialShadingGroup
f 177/353/133 180/354/133 179/355/133 178/356/133
f 181/357/134 184/358/134 183/359/134 182/360/134
f 180/354/135 183/361/135 184/362/135 179/355/135
f 182/363/136 177/364/136 178/365/136 181/366/136
f 182/360/137 183/359/137 180/354/137 177/353/137
f 178/356/138 179/355/138 184/367/138 181/368/138
o armorright
v 0.544057 -0.387067 -0.478629
v 0.731557 -0.387067 -0.478629
v 0.731557 -0.085215 -0.559509
v 0.544057 -0.085215 -0.559509
v 0.731557 -0.257658 0.004334
v 0.544057 -0.257658 0.004334
v 0.544057 0.044194 -0.076547
v 0.731557 0.044194 -0.076547
vt 0.8281 0.5938
vt 0.8281 0.7500
vt 0.7812 0.7500
vt 0.7812 0.5938
vt 1.0000 0.5938
vt 1.0000 0.7500
vt 0.9531 0.7500
vt 0.9531 0.5938
vt 0.8281 1.0000
vt 0.7812 1.0000
vt 0.8750 0.7500
vt 0.8750 1.0000
vt 0.8281 1.0000
vt 0.8281 0.7500
vt 0.6562 0.7500
vt 0.6562 0.5938
vn 0.0000 -0.2588 -0.9659
vn 0.0000 0.2588 0.9659
vn 0.0000 0.9659 -0.2588
vn 0.0000 -0.9659 0.2588
vn -1.0000 0.0000 0.0000
vn 1.0000 0.0000 0.0000
usemtl initialShadingGroup
f 185/369/139 188/370/139 187/371/139 186/372/139
f 189/373/140 192/374/140 191/375/140 190/376/140
f 188/370/141 191/377/141 192/378/141 187/371/141
f 190/379/142 185/380/142 186/381/142 189/382/142
f 190/376/143 191/375/143 188/370/143 185/369/143
f 186/372/144 187/371/144 192/383/144 189/384/144
o mainarm
v 0.294057 -0.491632 -0.385906
v 0.669057 -0.491632 -0.385906
v 0.669057 -0.129410 -0.482963
v 0.294057 -0.129410 -0.482963
v 0.669057 -0.329870 0.217798
v 0.294057 -0.329870 0.217798
v 0.294057 0.032352 0.120741
v 0.669057 0.032352 0.120741
vt 0.2500 0.0000
vt 0.2500 0.1875
vt 0.1562 0.1875
vt 0.1562 0.0000
vt 0.5000 0.0000
vt 0.5000 0.1875
vt 0.4062 0.1875
vt 0.4062 0.0000
vt 0.2500 0.5000
vt 0.1562 0.5000
vt 0.3438 0.1875
vt 0.3438 0.5000
vt 0.2500 0.5000
vt 0.2500 0.1875
vt 0.0000 0.1875
vt 0.0000 0.0000
vn 0.0000 -0.2588 -0.9659
vn 0.0000 0.2588 0.9659
vn 0.0000 0.9659 -0.2588
vn 0.0000 -0.9659 0.2588
vn -1.0000 0.0000 0.0000
vn 1.0000 -0.0000 0.0000
usemtl initialShadingGroup
f 193/385/145 196/386/145 195/387/145 194/388/145
f 197/389/146 200/390/146 199/391/146 198/392/146
f 196/386/147 199/393/147 200/394/147 195/387/147
f 198/395/148 193/396/148 194/397/148 197/398/148
f 198/392/149 199/391/149 196/386/149 193/385/149
f 194/388/150 195/387/150 200/399/150 197/400/150