# Blender v2.78 (sub 0) OBJ File: 'powerFistFiring.blend'
# www.blender.org
mtllib powerfist.mtl
o thumb2
v 0.503738 -0.125000 0.610643
v 0.441541 -0.125000 0.616790
v 0.441541 -0.062500 0.616790
v 0.503738 -0.062500 0.610643
v 0.459980 -0.125000 0.803381
v 0.522177 -0.125000 0.797235
v 0.522177 -0.062500 0.797235
v 0.459980 -0.062500 0.803381
vt 0.2188 0.8750
vt 0.2031 0.8750
vt 0.2031 0.9062
vt 0.2188 0.9062
vt 0.2812 0.8750
vt 0.2656 0.8750
vt 0.2656 0.9062
vt 0.2812 0.9062
vt 0.2031 1.0000
vt 0.2188 1.0000
vt 0.2344 0.9062
vt 0.2188 0.9062
vt 0.2188 1.0000
vt 0.2344 1.0000
vt 0.1562 0.8750
vt 0.1562 0.9062
vn -0.0984 0.0000 -0.9952
vn 0.0983 0.0000 0.9952
vn 0.0000 1.0000 0.0000
vn 0.0000 -1.0000 0.0000
vn 0.9952 0.0000 -0.0983
vn -0.9952 0.0000 0.0983
usemtl initialShadingGroup
f 1/1/1 2/2/1 3/3/1 4/4/1
f 5/5/2 6/6/2 7/7/2 8/8/2
f 4/4/3 3/3/3 8/9/3 7/10/3
f 6/11/4 5/12/4 2/13/4 1/14/4
f 6/6/5 1/1/5 4/4/5 7/7/5
f 2/2/6 5/15/6 8/16/6 3/3/6
o thumb1
v 0.264215 -0.156250 0.472170
v 0.235785 -0.156250 0.527830
v 0.235785 -0.031250 0.527830
v 0.264215 -0.031250 0.472170
v 0.458425 -0.156250 0.641547
v 0.486854 -0.156250 0.585887
v 0.486854 -0.031250 0.585887
v 0.458425 -0.031250 0.641547
vt 0.3281 0.5312
vt 0.3125 0.5312
vt 0.3125 0.5938
vt 0.3281 0.5938
vt 0.4062 0.5312
vt 0.3906 0.5312
vt 0.3906 0.5938
vt 0.4062 0.5938
vt 0.3125 0.7188
vt 0.3281 0.7188
vt 0.3438 0.5938
vt 0.3281 0.5938
vt 0.3281 0.7188
vt 0.3438 0.7188
vt 0.2500 0.5312
vt 0.2500 0.5938
vn -0.8906 0.0000 -0.4549
vn 0.8906 0.0000 0.4549
vn 0.0000 1.0000 0.0000
vn 0.0000 -1.0000 -0.0000
vn 0.4549 0.0000 -0.8906
vn -0.4549 0.0000 0.8906
usemtl initialShadingGroup
f 9/17/7 10/18/7 11/19/7 12/20/7
f 13/21/8 14/22/8 15/23/8 16/24/8
f 12/20/9 11/19/9 16/25/9 15/26/9
f 14/27/10 13/28/10 10/29/10 9/30/10
f 14/22/11 9/17/11 12/20/11 15/23/11
f 10/18/12 13/31/12 16/32/12 11/19/12
o pinky2
v -0.125000 0.305988 0.726564
v -0.187500 0.305988 0.726564
v -0.187500 0.354111 0.686685
v -0.125000 0.354111 0.686685
v -0.187500 0.465505 0.919059
v -0.125000 0.465505 0.919059
v -0.125000 0.513628 0.879180
v -0.187500 0.513628 0.879180
vt 0.6094 0.4375
vt 0.5938 0.4375
vt 0.5938 0.4688
vt 0.6094 0.4688
vt 0.6875 0.4375
vt 0.6719 0.4375
vt 0.6719 0.4688
vt 0.6875 0.4688
vt 0.5938 0.5938
vt 0.6094 0.5938
vt 0.6250 0.4688
vt 0.6094 0.4688
vt 0.6094 0.5938
vt 0.6250 0.5938
vt 0.5312 0.4375
vt 0.5312 0.4688
vn 0.0000 -0.6381 -0.7700
vn 0.0000 0.6381 0.7700
vn 0.0000 0.7700 -0.6381
vn 0.0000 -0.7700 0.6381
vn 1.0000 0.0000 0.0000
vn -1.0000 0.0000 0.0000
usemtl initialShadingGroup
f 17/33/13 18/34/13 19/35/13 20/36/13
f 21/37/14 22/38/14 23/39/14 24/40/14
f 20/36/15 19/35/15 24/41/15 23/42/15
f 22/43/16 21/44/16 18/45/16 17/46/16
f 22/38/17 17/33/17 20/36/17 23/39/17
f 18/34/18 21/47/18 24/48/18 19/35/18
o pinky1
v -0.125000 0.083547 0.654537
v -0.187500 0.083547 0.654537
v -0.187500 0.103953 0.595463
v -0.125000 0.103953 0.595463
v -0.187500 0.319846 0.736162
v -0.125000 0.319846 0.736162
v -0.125000 0.340253 0.677087
v -0.187500 0.340253 0.677087
vt 0.6094 0.4375
vt 0.5938 0.4375
vt 0.5938 0.4688
vt 0.6094 0.4688
vt 0.6875 0.4375
vt 0.6719 0.4375
vt 0.6719 0.4688
vt 0.6875 0.4688
vt 0.5938 0.5938
vt 0.6094 0.5938
vt 0.6250 0.4688
vt 0.6094 0.4688
vt 0.6094 0.5938
vt 0.6250 0.5938
vt 0.5312 0.4375
vt 0.5312 0.4688
vn 0.0000 -0.9452 -0.3265
vn 0.0000 0.9452 0.3265
vn 0.0000 0.3265 -0.9452
vn 0.0000 -0.3265 0.9452
vn 1.0000 0.0000 0.0000
vn -1.0000 0.0000 0.0000
usemtl initialShadingGroup
f 25/49/19 26/50/19 27/51/19 28/52/19
f 29/53/20 30/54/20 31/55/20 32/56/20
f 28/52/21 27/51/21 32/57/21 31/58/21
f 30/59/22 29/60/22 26/61/22 25/62/22
f 30/54/23 25/49/23 28/52/23 31/55/23
f 26/50/24 29/63/24 32/64/24 27/51/24
o ringfinger2
v 0.000000 0.361700 0.742013
v -0.062500 0.361700 0.742013
v -0.062500 0.416549 0.712048
v 0.000000 0.416549 0.712048
v -0.062500 0.481556 0.961408
v 0.000000 0.481556 0.961408
v 0.000000 0.536405 0.931444
v -0.062500 0.536405 0.931444
vt 0.6094 0.4375
vt 0.5938 0.4375
vt 0.5938 0.4688
vt 0.6094 0.4688
vt 0.6875 0.4375
vt 0.6719 0.4375
vt 0.6719 0.4688
vt 0.6875 0.4688
vt 0.5938 0.5938
vt 0.6094 0.5938
vt 0.6250 0.4688
vt 0.6094 0.4688
vt 0.6094 0.5938
vt 0.6250 0.5938
vt 0.5312 0.4375
vt 0.5312 0.4688
vn 0.0000 -0.4794 -0.8776
vn 0.0000 0.4794 0.8776
vn 0.0000 0.8776 -0.4794
vn 0.0000 -0.8776 0.4794
vn 1.0000 0.0000 0.0000
vn -1.0000 0.0000 0.0000
usemtl initialShadingGroup
f 33/65/25 34/66/25 35/67/25 36/68/25
f 37/69/26 38/70/26 39/71/26 40/72/26
f 36/68/27 35/67/27 40/73/27 39/74/27
f 38/75/28 37/76/28 34/77/28 33/78/28
f 38/70/29 33/65/29 36/68/29 39/71/29
f 34/66/30 37/79/30 40/80/30 35/67/30
o ringfinger1
v 0.000000 0.083547 0.654537
v -0.062500 0.083547 0.654537
v -0.062500 0.103953 0.595463
v 0.000000 0.103953 0.595463
v -0.062500 0.378921 0.756568
v 0.000000 0.378921 0.756568
v 0.000000 0.399327 0.697493
v -0.062500 0.399327 0.697493
vt 0.6250 0.4062
vt 0.6094 0.4062
vt 0.6094 0.4375
vt 0.6250 0.4375
vt 0.7188 0.4062
vt 0.7031 0.4062
vt 0.7031 0.4375
vt 0.7188 0.4375
vt 0.6094 0.5938
vt 0.6250 0.5938
vt 0.6406 0.4375
vt 0.6250 0.4375
vt 0.6250 0.5938
vt 0.6406 0.5938
vt 0.5312 0.4062
vt 0.5312 0.4375
vn 0.0000 -0.9452 -0.3265
vn 0.0000 0.9452 0.3265
vn 0.0000 0.3265 -0.9452
vn 0.0000 -0.3265 0.9452
vn 1.0000 0.0000 0.0000
vn -1.0000 0.0000 0.0000
usemtl initialShadingGroup
f 41/81/31 42/82/31 43/83/31 44/84/31
f 45/85/32 46/86/32 47/87/32 48/88/32
f 44/84/33 43/83/33 48/89/33 47/90/33
f 46/91/34 45/92/34 42/93/34 41/94/34
f 46/86/35 41/81/35 44/84/35 47/87/35
f 42/82/36 45/95/36 48/96/36 43/83/36
o middlefinger2
v 0.125000 0.422105 0.764632
v 0.062500 0.422105 0.764632
v 0.062500 0.474293 0.730241
v 0.125000 0.474293 0.730241
v 0.062500 0.559666 0.973383
v 0.125000 0.559666 0.973383
v 0.125000 0.611854 0.938993
v 0.062500 0.611854 0.938993
vt 0.6094 0.4375
vt 0.5938 0.4375
vt 0.5938 0.4688
vt 0.6094 0.4688
vt 0.6875 0.4375
vt 0.6719 0.4375
vt 0.6719 0.4688
vt 0.6875 0.4688
vt 0.5938 0.5938
vt 0.6094 0.5938
vt 0.6250 0.4688
vt 0.6094 0.4688
vt 0.6094 0.5938
vt 0.6250 0.5938
vt 0.5312 0.4375
vt 0.5312 0.4688
vn 0.0000 -0.5503 -0.8350
vn 0.0000 0.5502 0.8350
vn 0.0000 0.8350 -0.5502
vn 0.0000 -0.8350 0.5502
vn 1.0000 0.0000 0.0000
vn -1.0000 0.0000 0.0000
usemtl initialShadingGroup
f 49/97/37 50/98/37 51/99/37 52/100/37
f 53/101/38 54/102/38 55/103/38 56/104/38
f 52/100/39 51/99/39 56/105/39 55/106/39
f 54/107/40 53/108/40 50/109/40 49/110/40
f 54/102/41 49/97/41 52/100/41 55/103/41
f 50/98/42 53/111/42 56/112/42 51/99/42
o middlefinger1
v 0.125000 0.083547 0.654537
v 0.062500 0.083547 0.654537
v 0.062500 0.103953 0.595463
v 0.125000 0.103953 0.595463
v 0.062500 0.437996 0.776974
v 0.125000 0.437996 0.776974
v 0.125000 0.458402 0.717899
v 0.062500 0.458402 0.717899
vt 0.1094 0.7812
vt 0.0938 0.7812
vt 0.0938 0.8125
vt 0.1094 0.8125
vt 0.2188 0.7812
vt 0.2031 0.7812
vt 0.2031 0.8125
vt 0.2188 0.8125
vt 0.0938 1.0000
vt 0.1094 1.0000
vt 0.1250 0.8125
vt 0.1094 0.8125
vt 0.1094 1.0000
vt 0.1250 1.0000
vt 0.0000 0.7812
vt 0.0000 0.8125
vn 0.0000 -0.9452 -0.3265
vn 0.0000 0.9452 0.3265
vn 0.0000 0.3265 -0.9452
vn 0.0000 -0.3265 0.9452
vn 1.0000 0.0000 0.0000
vn -1.0000 0.0000 0.0000
usemtl initialShadingGroup
f 57/113/43 58/114/43 59/115/43 60/116/43
f 61/117/44 62/118/44 63/119/44 64/120/44
f 60/116/45 59/115/45 64/121/45 63/122/45
f 62/123/46 61/124/46 58/125/46 57/126/46
f 62/118/47 57/113/47 60/116/47 63/119/47
f 58/114/48 61/127/48 64/128/48 59/115/48
o index2
v 0.250000 0.366503 0.748616
v 0.187500 0.366503 0.748616
v 0.187500 0.411733 0.705483
v 0.250000 0.411733 0.705483
v 0.187500 0.539034 0.929538
v 0.250000 0.539034 0.929538
v 0.250000 0.584264 0.886405
v 0.187500 0.584264 0.886405
vt 0.6094 0.4375
vt 0.5938 0.4375
vt 0.5938 0.4688
vt 0.6094 0.4688
vt 0.6875 0.4375
vt 0.6719 0.4375
vt 0.6719 0.4688
vt 0.6875 0.4688
vt 0.5938 0.5938
vt 0.6094 0.5938
vt 0.6250 0.4688
vt 0.6094 0.4688
vt 0.6094 0.5938
vt 0.6250 0.5938
vt 0.5312 0.4375
vt 0.5312 0.4688
vn 0.0000 -0.6901 -0.7237
vn 0.0000 0.6901 0.7237
vn 0.0000 0.7237 -0.6901
vn 0.0000 -0.7237 0.6901
vn 1.0000 0.0000 0.0000
vn -1.0000 0.0000 0.0000
usemtl initialShadingGroup
f 65/129/49 66/130/49 67/131/49 68/132/49
f 69/133/50 70/134/50 71/135/50 72/136/50
f 68/132/51 67/131/51 72/137/51 71/138/51
f 70/139/52 69/140/52 66/141/52 65/142/52
f 70/134/53 65/129/53 68/132/53 71/135/53
f 66/130/54 69/143/54 72/144/54 67/131/54
o index1
v 0.250000 0.083545 0.654537
v 0.187500 0.083545 0.654537
v 0.187500 0.103955 0.595463
v 0.250000 0.103955 0.595463
v 0.187500 0.378913 0.756586
v 0.250000 0.378913 0.756586
v 0.250000 0.399323 0.697513
v 0.187500 0.399323 0.697513
vt 0.6250 0.4062
vt 0.6094 0.4062
vt 0.6094 0.4375
vt 0.6250 0.4375
vt 0.7188 0.4062
vt 0.7031 0.4062
vt 0.7031 0.4375
vt 0.7188 0.4375
vt 0.6094 0.5938
vt 0.6250 0.5938
vt 0.6406 0.4375
vt 0.6250 0.4375
vt 0.6250 0.5938
vt 0.6406 0.5938
vt 0.5312 0.4062
vt 0.5312 0.4375
vn 0.0000 -0.9452 -0.3266
vn 0.0000 0.9452 0.3266
vn 0.0000 0.3266 -0.9452
vn 0.0000 -0.3266 0.9452
vn 1.0000 0.0000 0.0000
vn -1.0000 0.0000 0.0000
usemtl initialShadingGroup
f 73/145/55 74/146/55 75/147/55 76/148/55
f 77/149/56 78/150/56 79/151/56 80/152/56
f 76/148/57 75/147/57 80/153/57 79/154/57
f 78/155/58 77/156/58 74/157/58 73/158/58
f 78/150/59 73/145/59 76/148/59 79/151/59
f 74/146/60 77/159/60 80/160/60 75/147/60