# Blender v2.78 (sub 0) OBJ File: ''
# www.blender.org
mtllib powerfist.mtl
o thumb2
v 0.102743 -0.125000 0.727403
v 0.102743 -0.062500 0.727403
v 0.165005 -0.062500 0.732850
v 0.165005 -0.125000 0.732850
v 0.148664 -0.125000 0.919636
v 0.148664 -0.062500 0.919636
v 0.086401 -0.062500 0.914189
v 0.086401 -0.125000 0.914189
vt 0.2188 0.8750
vt 0.2188 0.9062
vt 0.2031 0.9062
vt 0.2031 0.8750
vt 0.2812 0.8750
vt 0.2812 0.9062
vt 0.2656 0.9062
vt 0.2656 0.8750
vt 0.2188 1.0000
vt 0.2031 1.0000
vt 0.2344 0.9062
vt 0.2344 1.0000
vt 0.2188 1.0000
vt 0.2188 0.9062
vt 0.1562 0.9062
vt 0.1562 0.8750
vn 0.0872 0.0000 -0.9962
vn -0.0872 0.0000 0.9962
vn -0.0000 1.0000 0.0000
vn 0.0000 -1.0000 -0.0000
vn -0.9962 0.0000 -0.0872
vn 0.9962 0.0000 0.0872
usemtl initialShadingGroup
f 1/1/1 2/2/1 3/3/1 4/4/1
f 5/5/2 6/6/2 7/7/2 8/8/2
f 2/2/3 7/9/3 6/10/3 3/3/3
f 8/11/4 1/12/4 4/13/4 5/14/4
f 8/8/5 7/7/5 2/2/5 1/1/5
f 4/4/6 3/3/6 6/15/6 5/16/6
o thumb1
v 0.202791 -0.156250 0.487790
v 0.202791 -0.031250 0.487790
v 0.260323 -0.031250 0.512210
v 0.260323 -0.156250 0.512210
v 0.162640 -0.156250 0.742337
v 0.162640 -0.031250 0.742337
v 0.105108 -0.031250 0.717916
v 0.105108 -0.156250 0.717916
vt 0.3281 0.5312
vt 0.3281 0.5938
vt 0.3125 0.5938
vt 0.3125 0.5312
vt 0.4062 0.5312
vt 0.4062 0.5938
vt 0.3906 0.5938
vt 0.3906 0.5312
vt 0.3281 0.7188
vt 0.3125 0.7188
vt 0.3438 0.5938
vt 0.3438 0.7188
vt 0.3281 0.7188
vt 0.3281 0.5938
vt 0.2500 0.5938
vt 0.2500 0.5312
vn 0.3907 0.0000 -0.9205
vn -0.3907 0.0000 0.9205
vn 0.0000 1.0000 0.0000
vn -0.0000 -1.0000 0.0000
vn -0.9205 0.0000 -0.3907
vn 0.9205 0.0000 0.3907
usemtl initialShadingGroup
f 9/17/7 10/18/7 11/19/7 12/20/7
f 13/21/8 14/22/8 15/23/8 16/24/8
f 10/18/9 15/25/9 14/26/9 11/19/9
f 16/27/10 9/28/10 12/29/10 13/30/10
f 16/24/11 15/23/11 10/18/11 9/17/11
f 12/20/12 11/19/12 14/31/12 13/32/12
o pinky2
v 0.606557 0.127779 0.860519
v 0.606557 0.189131 0.872444
v 0.669057 0.189131 0.872444
v 0.669057 0.127779 0.860519
v 0.669057 0.080077 1.105925
v 0.669057 0.141428 1.117851
v 0.606557 0.141428 1.117851
v 0.606557 0.080077 1.105925
vt 0.6094 0.4375
vt 0.6094 0.4688
vt 0.5938 0.4688
vt 0.5938 0.4375
vt 0.6875 0.4375
vt 0.6875 0.4688
vt 0.6719 0.4688
vt 0.6719 0.4375
vt 0.6094 0.5938
vt 0.5938 0.5938
vt 0.6250 0.4688
vt 0.6250 0.5938
vt 0.6094 0.5938
vt 0.6094 0.4688
vt 0.5312 0.4688
vt 0.5312 0.4375
vn 0.0000 0.1908 -0.9816
vn 0.0000 -0.1908 0.9816
vn 0.0000 0.9816 0.1908
vn 0.0000 -0.9816 -0.1908
vn -1.0000 0.0000 0.0000
vn 1.0000 -0.0000 0.0000
usemtl initialShadingGroup
f 17/33/13 18/34/13 19/35/13 20/36/13
f 21/37/14 22/38/14 23/39/14 24/40/14
f 18/34/15 23/41/15 22/42/15 19/35/15
f 24/43/16 17/44/16 20/45/16 21/46/16
f 24/40/17 23/39/17 18/34/17 17/33/17
f 20/36/18 19/35/18 22/47/18 21/48/18
o pinky1
v 0.606557 0.063565 0.633088
v 0.606557 0.123935 0.616912
v 0.669057 0.123935 0.616912
v 0.669057 0.063565 0.633088
v 0.669057 0.128270 0.874570
v 0.669057 0.188640 0.858393
v 0.606557 0.188640 0.858393
v 0.606557 0.128270 0.874570
vt 0.6094 0.4375
vt 0.6094 0.4688
vt 0.5938 0.4688
vt 0.5938 0.4375
vt 0.6875 0.4375
vt 0.6875 0.4688
vt 0.6719 0.4688
vt 0.6719 0.4375
vt 0.6094 0.5938
vt 0.5938 0.5938
vt 0.6250 0.4688
vt 0.6250 0.5938
vt 0.6094 0.5938
vt 0.6094 0.4688
vt 0.5312 0.4688
vt 0.5312 0.4375
vn 0.0000 -0.2588 -0.9659
vn 0.0000 0.2588 0.9659
vn 0.0000 0.9659 -0.2588
vn 0.0000 -0.9659 0.2588
vn -1.0000 -0.0000 0.0000
vn 1.0000 0.0000 0.0000
usemtl initialShadingGroup
f 25/49/19 26/50/19 27/51/19 28/52/19
f 29/53/20 30/54/20 31/55/20 32/56/20
f 26/50/21 31/57/21 30/58/21 27/51/21
f 32/59/22 25/60/22 28/61/22 29/62/22
f 32/56/23 31/55/23 26/50/23 25/49/23
f 28/52/24 27/51/24 30/63/24 29/64/24
o ringfinger2
v 0.481557 0.143381 0.926852
v 0.481557 0.205881 0.926852
v 0.544057 0.205881 0.926852
v 0.544057 0.143381 0.926852
v 0.544057 0.143381 1.176852
v 0.544057 0.205881 1.176852
v 0.481557 0.205881 1.176852
v 0.481557 0.143381 1.176852
vt 0.6094 0.4375
vt 0.6094 0.4688
vt 0.5938 0.4688
vt 0.5938 0.4375
vt 0.6875 0.4375
vt 0.6875 0.4688
vt 0.6719 0.4688
vt 0.6719 0.4375
vt 0.6094 0.5938
vt 0.5938 0.5938
vt 0.6250 0.4688
vt 0.6250 0.5938
vt 0.6094 0.5938
vt 0.6094 0.4688
vt 0.5312 0.4688
vt 0.5312 0.4375
vn 0.0000 0.0000 -1.0000
vn 0.0000 0.0000 1.0000
vn 0.0000 1.0000 0.0000
vn 0.0000 -1.0000 0.0000
vn -1.0000 0.0000 0.0000
vn 1.0000 0.0000 0.0000
usemtl initialShadingGroup
f 33/65/25 34/66/25 35/67/25 36/68/25
f 37/69/26 38/70/26 39/71/26 40/72/26
f 34/66/27 39/73/27 38/74/27 35/67/27
f 40/75/28 33/76/28 36/77/28 37/78/28
f 40/72/29 39/71/29 34/66/29 33/65/29
f 36/68/30 35/67/30 38/79/30 37/80/30
o ringfinger1
v 0.481557 0.063565 0.633088
v 0.481557 0.123935 0.616912
v 0.544057 0.123935 0.616912
v 0.544057 0.063565 0.633088
v 0.544057 0.144446 0.934940
v 0.544057 0.204816 0.918764
v 0.481557 0.204816 0.918764
v 0.481557 0.144446 0.934940
vt 0.6250 0.4062
vt 0.6250 0.4375
vt 0.6094 0.4375
vt 0.6094 0.4062
vt 0.7188 0.4062
vt 0.7188 0.4375
vt 0.7031 0.4375
vt 0.7031 0.4062
vt 0.6250 0.5938
vt 0.6094 0.5938
vt 0.6406 0.4375
vt 0.6406 0.5938
vt 0.6250 0.5938
vt 0.6250 0.4375
vt 0.5312 0.4375
vt 0.5312 0.4062
vn 0.0000 -0.2588 -0.9659
vn 0.0000 0.2588 0.9659
vn 0.0000 0.9659 -0.2588
vn 0.0000 -0.9659 0.2588
vn -1.0000 -0.0000 0.0000
vn 1.0000 -0.0000 0.0000
usemtl initialShadingGroup
f 41/81/31 42/82/31 43/83/31 44/84/31
f 45/85/32 46/86/32 47/87/32 48/88/32
f 42/82/33 47/89/33 46/90/33 43/83/33
f 48/91/34 41/92/34 44/93/34 45/94/34
f 48/88/35 47/87/35 42/82/35 41/81/35
f 44/84/36 43/83/36 46/95/36 45/96/36
o middlefinger2
v 0.356557 0.159664 0.984643
v 0.356557 0.221951 0.989801
v 0.419057 0.221951 0.989801
v 0.419057 0.159664 0.984643
v 0.419057 0.139034 1.233791
v 0.419057 0.201321 1.238948
v 0.356557 0.201321 1.238948
v 0.356557 0.139034 1.233791
vt 0.6094 0.4375
vt 0.6094 0.4688
vt 0.5938 0.4688
vt 0.5938 0.4375
vt 0.6875 0.4375
vt 0.6875 0.4688
vt 0.6719 0.4688
vt 0.6719 0.4375
vt 0.6094 0.5938
vt 0.5938 0.5938
vt 0.6250 0.4688
vt 0.6250 0.5938
vt 0.6094 0.5938
vt 0.6094 0.4688
vt 0.5312 0.4688
vt 0.5312 0.4375
vn 0.0000 0.0825 -0.9966
vn 0.0000 -0.0825 0.9966
vn 0.0000 0.9966 0.0825
vn 0.0000 -0.9966 -0.0825
vn -1.0000 0.0000 0.0000
vn 1.0000 -0.0000 0.0000
usemtl initialShadingGroup
f 49/97/37 50/98/37 51/99/37 52/100/37
f 53/101/38 54/102/38 55/103/38 56/104/38
f 50/98/39 55/105/39 54/106/39 51/99/39
f 56/107/40 49/108/40 52/109/40 53/110/40
f 56/104/41 55/103/41 50/98/41 49/97/41
f 52/100/42 51/99/42 54/111/42 53/112/42
o middlefinger1
v 0.356557 0.063565 0.633088
v 0.356557 0.123935 0.616912
v 0.419057 0.123935 0.616912
v 0.419057 0.063565 0.633088
v 0.419057 0.160622 0.995310
v 0.419057 0.220992 0.979134
v 0.356557 0.220992 0.979134
v 0.356557 0.160622 0.995310
vt 0.1094 0.7812
vt 0.1094 0.8125
vt 0.0938 0.8125
vt 0.0938 0.7812
vt 0.2188 0.7812
vt 0.2188 0.8125
vt 0.2031 0.8125
vt 0.2031 0.7812
vt 0.1094 1.0000
vt 0.0938 1.0000
vt 0.1250 0.8125
vt 0.1250 1.0000
vt 0.1094 1.0000
vt 0.1094 0.8125
vt 0.0000 0.8125
vt 0.0000 0.7812
vn 0.0000 -0.2588 -0.9659
vn 0.0000 0.2588 0.9659
vn 0.0000 0.9659 -0.2588
vn 0.0000 -0.9659 0.2588
vn -1.0000 -0.0000 0.0000
vn 1.0000 -0.0000 0.0000
usemtl initialShadingGroup
f 57/113/43 58/114/43 59/115/43 60/116/43
f 61/117/44 62/118/44 63/119/44 64/120/44
f 58/114/45 63/121/45 62/122/45 59/115/45
f 64/123/46 57/124/46 60/125/46 61/126/46
f 64/120/47 63/119/47 58/114/47 57/113/47
f 60/116/48 59/115/48 62/127/48 61/128/48
o index2
v 0.231557 0.144446 0.918764
v 0.231557 0.204816 0.934940
v 0.294057 0.204816 0.934940
v 0.294057 0.144446 0.918764
v 0.294057 0.079741 1.160245
v 0.294057 0.140111 1.176421
v 0.231557 0.140111 1.176421
v 0.231557 0.079741 1.160245
vt 0.6094 0.4375
vt 0.6094 0.4688
vt 0.5938 0.4688
vt 0.5938 0.4375
vt 0.6875 0.4375
vt 0.6875 0.4688
vt 0.6719 0.4688
vt 0.6719 0.4375
vt 0.6094 0.5938
vt 0.5938 0.5938
vt 0.6250 0.4688
vt 0.6250 0.5938
vt 0.6094 0.5938
vt 0.6094 0.4688
vt 0.5312 0.4688
vt 0.5312 0.4375
vn 0.0000 0.2588 -0.9659
vn 0.0000 -0.2588 0.9659
vn 0.0000 0.9659 0.2588
vn 0.0000 -0.9659 -0.2588
vn -1.0000 -0.0000 0.0000
vn 1.0000 0.0000 0.0000
usemtl initialShadingGroup
f 65/129/49 66/130/49 67/131/49 68/132/49
f 69/133/50 70/134/50 71/135/50 72/136/50
f 66/130/51 71/137/51 70/138/51 67/131/51
f 72/139/52 65/140/52 68/141/52 69/142/52
f 72/136/53 71/135/53 66/130/53 65/129/53
f 68/132/54 67/131/54 70/143/54 69/144/54
o index1
v 0.231557 0.063565 0.633088
v 0.231557 0.123935 0.616912
v 0.294057 0.123935 0.616912
v 0.294057 0.063565 0.633088
v 0.294057 0.144446 0.934940
v 0.294057 0.204816 0.918764
v 0.231557 0.204816 0.918764
v 0.231557 0.144446 0.934940
vt 0.6250 0.4062
vt 0.6250 0.4375
vt 0.6094 0.4375
vt 0.6094 0.4062
vt 0.7188 0.4062
vt 0.7188 0.4375
vt 0.7031 0.4375
vt 0.7031 0.4062
vt 0.6250 0.5938
vt 0.6094 0.5938
vt 0.6406 0.4375
vt 0.6406 0.5938
vt 0.6250 0.5938
vt 0.6250 0.4375
vt 0.5312 0.4375
vt 0.5312 0.4062
vn 0.0000 -0.2588 -0.9659
vn 0.0000 0.2588 0.9659
vn 0.0000 0.9659 -0.2588
vn 0.0000 -0.9659 0.2588
vn -1.0000 -0.0000 0.0000
vn 1.0000 -0.0000 0.0000
usemtl initialShadingGroup
f 73/145/55 74/146/55 75/147/55 76/148/55
f 77/149/56 78/150/56 79/151/56 80/152/56
f 74/146/57 79/153/57 78/154/57 75/147/57
f 80/155/58 73/156/58 76/157/58 77/158/58
f 80/152/59 79/151/59 74/146/59 73/145/59
f 76/148/60 75/147/60 78/159/60 77/160/60