# Wavefront OBJ file
# Exported by Misfit Model 3D 1.3.7
# Fri Jul  8 14:56:36 2016

mtllib lightCore.mtl

# 4 Vertices
v -0.214569 0.148144 0.214569
v 0.214569 0.148144 0.214569
v 0.214569 0.148144 -0.214569
v -0.214569 0.148144 -0.214569

# 6 Texture Coordinates
vt 0.14 0.7594
vt 0.298 0.7594
vt 0.298 0.9174
vt 0.14 0.7594
vt 0.298 0.9174
vt 0.14 0.9174

# 6 Vertex Normals
vn 0.0 1.0 0.0
vn 0.0 1.0 0.0
vn 0.0 1.0 0.0
vn 0.0 1.0 0.0
vn 0.0 1.0 0.0
vn 0.0 1.0 0.0

# poplight001, 2 grouped triangles

usemtl Material__3
o poplight001
g poplight001

f 1/1/1 2/2/2 3/3/3
f 1/4/4 3/5/5 4/6/6
