# Blender v2.77 (sub 0) OBJ File: 'luxcapacitor.blend'
# www.blender.org
mtllib luxcapacitor.mtl
o frame_light.007
v 0.285431 0.238144 0.285431
v 0.285431 0.260675 0.285431
v 0.285431 0.260675 0.714569
v 0.285431 0.238144 0.714569
v 0.714569 0.260675 0.714569
v 0.714569 0.238144 0.714569
v 0.714569 0.260675 0.285431
v 0.714569 0.238144 0.285431
v 0.857494 0.260675 0.857494
v 0.142506 0.260675 0.857494
v 0.142506 0.176444 0.857494
v 0.857494 0.176444 0.857494
v 0.857494 0.260675 0.142506
v 0.857494 0.176444 0.142506
v 0.142506 0.260675 0.142506
v 0.142506 0.176444 0.142506
v 0.903169 0.176444 0.096831
v 0.903169 0.176444 0.903169
v 0.903169 0.005769 0.903169
v 0.903169 0.005769 0.096831
v 0.096831 0.176444 0.096831
v 0.096831 0.005769 0.096831
v 0.096831 0.176444 0.903169
v 0.096831 0.005769 0.903169
vt 0.4556 0.7095
vt 0.4674 0.7095
vt 0.4674 0.9756
vt 0.4556 0.9756
vt 0.4439 0.9756
vt 0.4321 0.9756
vt 0.4321 0.7095
vt 0.4439 0.7095
vt 0.4213 0.7095
vt 0.4321 0.9756
vt 0.4213 0.9756
vt 0.4439 0.7095
vt 0.4556 0.7095
vt 0.4556 0.9756
vt 0.4439 0.9756
vt 0.9248 0.0000
vt 0.9248 0.4424
vt 0.8809 0.4424
vt 0.8809 0.0000
vt 0.9248 0.4424
vt 0.9688 0.0000
vt 0.9688 0.4424
vt 0.7931 0.4424
vt 0.7931 0.0000
vt 0.8370 0.0000
vt 0.8370 0.4424
vt 0.8809 0.0000
vt 0.8809 0.4424
vt 0.8370 0.0000
vt 0.9110 0.4443
vt 0.9110 0.9434
vt 0.8220 0.9434
vt 0.8220 0.4443
vt 1.0000 0.4443
vt 1.0000 0.9434
vt 0.9110 0.9434
vt 0.9110 0.4443
vt 0.7331 0.4443
vt 0.7331 0.9434
vt 0.6441 0.9434
vt 0.6441 0.4443
vt 0.4204 0.5000
vt 0.4204 1.0000
vt 0.0000 1.0000
vt 0.0000 0.5000
vt 0.7331 0.9434
vt 0.7331 0.4443
vt 0.8220 0.4443
vt 0.8220 0.9434
vt 0.4213 0.4424
vt 0.4949 0.3547
vt 0.7186 0.3547
vt 0.7186 0.0886
vt 0.4213 0.0000
vt 0.4949 0.0886
vt 0.0000 0.0000
vt 0.4204 0.0000
vt 0.3966 0.0283
vt 0.0238 0.0283
vt 0.0000 0.5000
vt 0.0238 0.4717
vt 0.4204 0.5000
vt 0.3966 0.4717
vn 1.0000 0.0000 0.0000
vn 0.0000 0.0000 -1.0000
vn -1.0000 0.0000 0.0000
vn 0.0000 0.0000 1.0000
vn 0.0000 -1.0000 -0.0000
vn -0.0000 1.0000 0.0000
usemtl Material__3.002
s 1
f 1/1/1 2/2/1 3/3/1
f 1/1/1 3/3/1 4/4/1
f 4/5/2 3/6/2 5/7/2
f 4/5/2 5/7/2 6/8/2
f 6/9/3 5/7/3 7/10/3
f 6/9/3 7/10/3 8/11/3
f 8/12/4 7/13/4 2/14/4
f 8/12/4 2/14/4 1/15/4
f 9/16/4 10/17/4 11/18/4
f 9/16/4 11/18/4 12/19/4
f 13/20/1 9/16/1 12/21/1
f 13/20/1 12/21/1 14/22/1
f 15/23/2 13/24/2 14/25/2
f 15/23/2 14/25/2 16/26/2
f 10/27/3 15/28/3 16/26/3
f 10/27/3 16/26/3 11/29/3
f 17/30/1 18/31/1 19/32/1
f 17/30/1 19/32/1 20/33/1
f 21/34/2 17/35/2 20/36/2
f 21/34/2 20/36/2 22/37/2
f 23/38/3 21/39/3 22/40/3
f 23/38/3 22/40/3 24/41/3
f 24/42/5 22/43/5 20/44/5
f 24/42/5 20/44/5 19/45/5
f 24/46/4 19/47/4 18/48/4
f 24/46/4 18/48/4 23/49/4
f 15/23/6 10/50/6 3/51/6
f 15/23/6 3/51/6 2/52/6
f 13/24/6 15/23/6 2/52/6
f 13/24/6 2/52/6 7/53/6
f 9/54/6 13/24/6 7/53/6
f 9/54/6 7/53/6 5/55/6
f 10/50/6 9/54/6 5/55/6
f 10/50/6 5/55/6 3/51/6
f 18/56/6 17/57/6 14/58/6
f 18/56/6 14/58/6 12/59/6
f 23/60/6 18/56/6 12/59/6
f 23/60/6 12/59/6 11/61/6
f 21/62/6 23/60/6 11/61/6
f 21/62/6 11/61/6 16/63/6
f 17/57/6 21/62/6 16/63/6
f 17/57/6 16/63/6 14/58/6
o light_light.008
v 0.285431 0.238144 0.714569
v 0.714569 0.238144 0.714569
v 0.714569 0.238144 0.285431
v 0.285431 0.238144 0.285431
vt 0.4213 0.7085
vt 0.4213 0.4443
vt 0.6421 0.4443
vt 0.6421 0.7085
vn 0.0000 1.0000 0.0000
usemtl Material__3.003
s 1
f 25/64/7 26/65/7 27/66/7
f 25/64/7 27/66/7 28/67/7
