# Blender v2.78 (sub 0) OBJ File: 'workbench.blend'
# www.blender.org
mtllib powerarmor_workbench.mtl
o leg1
v 1.000000 0.000000 0.000000
v 0.875000 0.000000 0.000000
v 0.875000 0.875000 0.000000
v 1.000000 0.875000 0.000000
v 0.875000 -0.000000 0.125000
v 1.000000 -0.000000 0.125000
v 1.000000 0.875000 0.125000
v 0.875000 0.875000 0.125000
vt 0.9883 0.8945
vt 0.9883 0.9648
vt 0.5039 0.9648
vt 0.5039 0.8945
vt 0.9883 0.8164
vt 0.9883 0.8867
vt 0.5039 0.8867
vt 0.5039 0.8164
vt 0.2305 0.9414
vt 0.2773 0.9414
vt 0.2773 0.9883
vt 0.2305 0.9883
vt 0.2305 0.8867
vt 0.2773 0.8867
vt 0.2773 0.9336
vt 0.2305 0.9336
vt 0.5039 0.7305
vt 0.5039 0.6602
vt 0.9883 0.6602
vt 0.9883 0.7305
vt 0.5039 0.8086
vt 0.5039 0.7383
vt 0.9883 0.7383
vt 0.9883 0.8086
vn 0.0000 0.0000 -1.0000
vn 0.0000 -0.0000 1.0000
vn 0.0000 1.0000 0.0000
vn 0.0000 -1.0000 -0.0000
vn 1.0000 0.0000 0.0000
vn -1.0000 -0.0000 0.0000
usemtl Material.001
f 1/1/1 2/2/1 3/3/1 4/4/1
f 5/5/2 6/6/2 7/7/2 8/8/2
f 4/9/3 3/10/3 8/11/3 7/12/3
f 6/13/4 5/14/4 2/15/4 1/16/4
f 6/17/5 1/18/5 4/19/5 7/20/5
f 2/21/6 5/22/6 8/23/6 3/24/6
o leg2
v 1.000000 -0.000000 0.875000
v 0.875000 -0.000000 0.875000
v 0.875000 0.875000 0.875000
v 1.000000 0.875000 0.875000
v 0.875000 -0.000000 1.000000
v 1.000000 -0.000000 1.000000
v 1.000000 0.875000 1.000000
v 0.875000 0.875000 1.000000
vt 0.9883 0.8945
vt 0.9883 0.9648
vt 0.5039 0.9648
vt 0.5039 0.8945
vt 0.9883 0.8164
vt 0.9883 0.8867
vt 0.5039 0.8867
vt 0.5039 0.8164
vt 0.2305 0.9414
vt 0.2773 0.9414
vt 0.2773 0.9883
vt 0.2305 0.9883
vt 0.2305 0.8867
vt 0.2773 0.8867
vt 0.2773 0.9336
vt 0.2305 0.9336
vt 0.5039 0.7305
vt 0.5039 0.6602
vt 0.9883 0.6602
vt 0.9883 0.7305
vt 0.5039 0.8086
vt 0.5039 0.7383
vt 0.9883 0.7383
vt 0.9883 0.8086
vn 0.0000 0.0000 -1.0000
vn 0.0000 0.0000 1.0000
vn 0.0000 1.0000 0.0000
vn 0.0000 -1.0000 -0.0000
vn 1.0000 0.0000 0.0000
vn -1.0000 0.0000 0.0000
usemtl Material.001
f 9/25/7 10/26/7 11/27/7 12/28/7
f 13/29/8 14/30/8 15/31/8 16/32/8
f 12/33/9 11/34/9 16/35/9 15/36/9
f 14/37/10 13/38/10 10/39/10 9/40/10
f 14/41/11 9/42/11 12/43/11 15/44/11
f 10/45/12 13/46/12 16/47/12 11/48/12
o leg3
v 0.125000 0.000000 0.000000
v 0.000000 0.000000 0.000000
v 0.000000 0.875000 0.000000
v 0.125000 0.875000 0.000000
v 0.000000 -0.000000 0.125000
v 0.125000 -0.000000 0.125000
v 0.125000 0.875000 0.125000
v 0.000000 0.875000 0.125000
vt 0.9883 0.8945
vt 0.9883 0.9648
vt 0.5039 0.9648
vt 0.5039 0.8945
vt 0.9883 0.8164
vt 0.9883 0.8867
vt 0.5039 0.8867
vt 0.5039 0.8164
vt 0.2305 0.9414
vt 0.2773 0.9414
vt 0.2773 0.9883
vt 0.2305 0.9883
vt 0.2305 0.8867
vt 0.2773 0.8867
vt 0.2773 0.9336
vt 0.2305 0.9336
vt 0.5039 0.7305
vt 0.5039 0.6602
vt 0.9883 0.6602
vt 0.9883 0.7305
vt 0.5039 0.8086
vt 0.5039 0.7383
vt 0.9883 0.7383
vt 0.9883 0.8086
vn 0.0000 0.0000 -1.0000
vn 0.0000 -0.0000 1.0000
vn 0.0000 1.0000 0.0000
vn 0.0000 -1.0000 -0.0000
vn 1.0000 0.0000 0.0000
vn -1.0000 0.0000 0.0000
usemtl Material.001
f 17/49/13 18/50/13 19/51/13 20/52/13
f 21/53/14 22/54/14 23/55/14 24/56/14
f 20/57/15 19/58/15 24/59/15 23/60/15
f 22/61/16 21/62/16 18/63/16 17/64/16
f 22/65/17 17/66/17 20/67/17 23/68/17
f 18/69/18 21/70/18 24/71/18 19/72/18
o leg4
v 0.125000 -0.000000 0.875000
v 0.000000 -0.000000 0.875000
v 0.000000 0.875000 0.875000
v 0.125000 0.875000 0.875000
v 0.000000 -0.000000 1.000000
v 0.125000 -0.000000 1.000000
v 0.125000 0.875000 1.000000
v 0.000000 0.875000 1.000000
vt 0.9883 0.8945
vt 0.9883 0.9648
vt 0.5039 0.9648
vt 0.5039 0.8945
vt 0.9883 0.8164
vt 0.9883 0.8867
vt 0.5039 0.8867
vt 0.5039 0.8164
vt 0.2305 0.9414
vt 0.2773 0.9414
vt 0.2773 0.9883
vt 0.2305 0.9883
vt 0.2305 0.8867
vt 0.2773 0.8867
vt 0.2773 0.9336
vt 0.2305 0.9336
vt 0.5039 0.7305
vt 0.5039 0.6602
vt 0.9883 0.6602
vt 0.9883 0.7305
vt 0.5039 0.8086
vt 0.5039 0.7383
vt 0.9883 0.7383
vt 0.9883 0.8086
vn 0.0000 0.0000 -1.0000
vn 0.0000 0.0000 1.0000
vn 0.0000 1.0000 0.0000
vn 0.0000 -1.0000 -0.0000
vn 1.0000 0.0000 0.0000
vn -1.0000 0.0000 0.0000
usemtl Material.001
f 25/73/19 26/74/19 27/75/19 28/76/19
f 29/77/20 30/78/20 31/79/20 32/80/20
f 28/81/21 27/82/21 32/83/21 31/84/21
f 30/85/22 29/86/22 26/87/22 25/88/22
f 30/89/23 25/90/23 28/91/23 31/92/23
f 26/93/24 29/94/24 32/95/24 27/96/24
o brace1
v 0.875000 0.187500 0.875000
v 0.125000 0.187500 0.875000
v 0.125000 0.312500 0.875000
v 0.875000 0.312500 0.875000
v 0.125000 0.187500 1.000000
v 0.875000 0.187500 1.000000
v 0.875000 0.312500 1.000000
v 0.125000 0.312500 1.000000
vt 0.0117 0.9883
vt 0.0117 0.6602
vt 0.0586 0.6602
vt 0.0586 0.9883
vt 0.1133 0.6602
vt 0.1133 0.9883
vt 0.0664 0.9883
vt 0.0664 0.6602
vt 0.2227 0.6602
vt 0.2227 0.9883
vt 0.1758 0.9883
vt 0.1758 0.6602
vt 0.1680 0.6602
vt 0.1680 0.9883
vt 0.1211 0.9883
vt 0.1211 0.6602
vt 0.2305 0.8320
vt 0.2773 0.8320
vt 0.2773 0.8789
vt 0.2305 0.8789
vt 0.2773 0.8242
vt 0.2305 0.8242
vt 0.2305 0.7773
vt 0.2773 0.7773
vn 0.0000 0.0000 -1.0000
vn 0.0000 0.0000 1.0000
vn 0.0000 1.0000 0.0000
vn 0.0000 -1.0000 0.0000
vn 1.0000 0.0000 0.0000
vn -1.0000 0.0000 0.0000
usemtl Material.001
f 33/97/25 34/98/25 35/99/25 36/100/25
f 37/101/26 38/102/26 39/103/26 40/104/26
f 36/105/27 35/106/27 40/107/27 39/108/27
f 38/109/28 37/110/28 34/111/28 33/112/28
f 38/113/29 33/114/29 36/115/29 39/116/29
f 34/117/30 37/118/30 40/119/30 35/120/30
o brace2
v 0.875000 0.187500 0.000000
v 0.125000 0.187500 0.000000
v 0.125000 0.312500 0.000000
v 0.875000 0.312500 0.000000
v 0.125000 0.187500 0.125000
v 0.875000 0.187500 0.125000
v 0.875000 0.312500 0.125000
v 0.125000 0.312500 0.125000
vt 0.0117 0.9883
vt 0.0117 0.6602
vt 0.0586 0.6602
vt 0.0586 0.9883
vt 0.1133 0.6602
vt 0.1133 0.9883
vt 0.0664 0.9883
vt 0.0664 0.6602
vt 0.2227 0.6602
vt 0.2227 0.9883
vt 0.1758 0.9883
vt 0.1758 0.6602
vt 0.1680 0.6602
vt 0.1680 0.9883
vt 0.1211 0.9883
vt 0.1211 0.6602
vt 0.2305 0.8320
vt 0.2773 0.8320
vt 0.2773 0.8789
vt 0.2305 0.8789
vt 0.2773 0.8242
vt 0.2305 0.8242
vt 0.2305 0.7773
vt 0.2773 0.7773
vn 0.0000 0.0000 -1.0000
vn 0.0000 0.0000 1.0000
vn 0.0000 1.0000 0.0000
vn 0.0000 -1.0000 0.0000
vn 1.0000 -0.0000 0.0000
vn -1.0000 0.0000 0.0000
usemtl Material.001
f 41/121/31 42/122/31 43/123/31 44/124/31
f 45/125/32 46/126/32 47/127/32 48/128/32
f 44/129/33 43/130/33 48/131/33 47/132/33
f 46/133/34 45/134/34 42/135/34 41/136/34
f 46/137/35 41/138/35 44/139/35 47/140/35
f 42/141/36 45/142/36 48/143/36 43/144/36
o brace3
v 0.562500 0.187500 0.125000
v 0.437500 0.187500 0.125000
v 0.437500 0.312500 0.125000
v 0.562500 0.312500 0.125000
v 0.437500 0.187500 0.875000
v 0.562500 0.187500 0.875000
v 0.562500 0.312500 0.875000
v 0.437500 0.312500 0.875000
vt 0.2773 0.7695
vt 0.2305 0.7695
vt 0.2305 0.7227
vt 0.2773 0.7227
vt 0.2773 0.7148
vt 0.2305 0.7148
vt 0.2305 0.6680
vt 0.2773 0.6680
vt 0.4961 0.9883
vt 0.4492 0.9883
vt 0.4492 0.6602
vt 0.4961 0.6602
vt 0.3945 0.6602
vt 0.4414 0.6602
vt 0.4414 0.9883
vt 0.3945 0.9883
vt 0.3320 0.6602
vt 0.3320 0.9883
vt 0.2852 0.9883
vt 0.2852 0.6602
vt 0.3398 0.9883
vt 0.3398 0.6602
vt 0.3867 0.6602
vt 0.3867 0.9883
vn 0.0000 0.0000 -1.0000
vn 0.0000 0.0000 1.0000
vn 0.0000 1.0000 0.0000
vn 0.0000 -1.0000 -0.0000
vn 1.0000 0.0000 0.0000
vn -1.0000 0.0000 0.0000
usemtl Material.001
f 49/145/37 50/146/37 51/147/37 52/148/37
f 53/149/38 54/150/38 55/151/38 56/152/38
f 52/153/39 51/154/39 56/155/39 55/156/39
f 54/157/40 53/158/40 50/159/40 49/160/40
f 54/161/41 49/162/41 52/163/41 55/164/41
f 50/165/42 53/166/42 56/167/42 51/168/42
o top
v 1.000000 0.875000 0.000000
v 0.000000 0.875000 0.000000
v 0.000000 1.000000 0.000000
v 1.000000 1.000000 0.000000
v 0.000000 0.875000 1.000000
v 1.000000 0.875000 1.000000
v 1.000000 1.000000 1.000000
v 0.000000 1.000000 1.000000
vt 0.0117 0.5039
vt 0.4961 0.5039
vt 0.4961 0.5742
vt 0.0117 0.5742
vt 0.9883 0.6523
vt 0.5039 0.6523
vt 0.5039 0.5820
vt 0.9883 0.5820
vt 0.4961 0.4961
vt 0.0117 0.4961
vt 0.0117 0.0117
vt 0.4961 0.0117
vt 0.5039 0.0117
vt 0.9883 0.0117
vt 0.9883 0.4961
vt 0.5039 0.4961
vt 0.5039 0.5039
vt 0.9883 0.5039
vt 0.9883 0.5742
vt 0.5039 0.5742
vt 0.0117 0.5820
vt 0.4961 0.5820
vt 0.4961 0.6523
vt 0.0117 0.6523
vn 0.0000 0.0000 -1.0000
vn 0.0000 0.0000 1.0000
vn 0.0000 1.0000 0.0000
vn 0.0000 -1.0000 -0.0000
vn 1.0000 0.0000 0.0000
vn -1.0000 0.0000 0.0000
usemtl Material.001
f 57/169/43 58/170/43 59/171/43 60/172/43
f 61/173/44 62/174/44 63/175/44 64/176/44
f 60/177/45 59/178/45 64/179/45 63/180/45
f 62/181/46 61/182/46 58/183/46 57/184/46
f 62/185/47 57/186/47 60/187/47 63/188/47
f 58/189/48 61/190/48 64/191/48 59/192/48