# Blender v2.76 (sub 0) OBJ File: 'tinkerTable.blend'
# www.blender.org
mtllib tinkerTable.mtl
o wirelong1
v 0.062500 0.387411 0.125000
v -0.001667 0.387411 0.125000
v -0.001667 0.449911 0.125000
v 0.062500 0.449911 0.125000
v -0.001667 0.387411 0.812500
v 0.062500 0.387411 0.812500
v 0.062500 0.449911 0.812500
v -0.001667 0.449911 0.812500
vt 0.796875 0.812500
vt 0.789062 0.812500
vt 0.789062 0.828125
vt 0.796875 0.828125
vt 0.902344 0.812500
vt 0.894531 0.812500
vt 0.894531 0.828125
vt 0.902344 0.828125
vt 0.789062 0.988281
vt 0.796875 0.988281
vt 0.804688 0.828125
vt 0.804688 0.988281
vt 0.687500 0.812500
vt 0.687500 0.828125
vn 0.000000 0.000000 -1.000000
vn 0.000000 0.000000 1.000000
vn 0.000000 1.000000 0.000000
vn 0.000000 -1.000000 -0.000000
vn 1.000000 0.000000 0.000000
vn -1.000000 0.000000 0.000000
usemtl initialShadingGroup
s 1
f 1/1/1 2/2/1 3/3/1 4/4/1
f 5/5/2 6/6/2 7/7/2 8/8/2
f 4/4/3 3/3/3 8/9/3 7/10/3
f 6/11/4 5/4/4 2/10/4 1/12/4
f 6/6/5 1/1/5 4/4/5 7/7/5
f 2/2/6 5/13/6 8/14/6 3/3/6
o fatfoot1
v 0.625000 0.012411 0.625000
v 0.368333 0.012411 0.625000
v 0.368333 0.199911 0.625000
v 0.625000 0.199911 0.625000
v 0.368333 0.012411 0.875000
v 0.625000 0.012411 0.875000
v 0.625000 0.199911 0.875000
v 0.368333 0.199911 0.875000
vt 0.929688 0.710938
vt 0.894531 0.710938
vt 0.894531 0.753906
vt 0.929688 0.753906
vt 1.000000 0.710938
vt 0.964844 0.710938
vt 0.964844 0.753906
vt 1.000000 0.753906
vt 0.894531 0.812500
vt 0.929688 0.812500
vt 0.964844 0.812500
vt 0.859375 0.710938
vt 0.859375 0.753906
vn 0.000000 0.000000 -1.000000
vn 0.000000 0.000000 1.000000
vn 0.000000 1.000000 0.000000
vn 0.000000 -1.000000 -0.000000
vn 1.000000 0.000000 0.000000
vn -1.000000 0.000000 0.000000
usemtl initialShadingGroup
s 1
f 9/15/7 10/16/7 11/17/7 12/18/7
f 13/19/8 14/20/8 15/21/8 16/22/8
f 12/18/9 11/17/9 16/23/9 15/24/9
f 14/21/10 13/18/10 10/24/10 9/25/10
f 14/20/11 9/15/11 12/18/11 15/21/11
f 10/16/12 13/26/12 16/27/12 11/17/12
o wireshort4
v 0.062500 0.449911 0.437500
v -0.001667 0.449911 0.437500
v -0.001667 0.574911 0.437500
v 0.062500 0.574911 0.437500
v -0.001667 0.449911 0.500000
v 0.062500 0.449911 0.500000
v 0.062500 0.574911 0.500000
v -0.001667 0.574911 0.500000
vt 0.651786 0.742857
vt 0.642857 0.742857
vt 0.642857 0.771429
vt 0.651786 0.771429
vt 0.669643 0.742857
vt 0.660714 0.742857
vt 0.660714 0.771429
vt 0.669643 0.771429
vt 0.642857 0.785714
vt 0.651786 0.785714
vt 0.660714 0.785714
vt 0.633929 0.742857
vt 0.633929 0.771429
vn 0.000000 0.000000 -1.000000
vn 0.000000 0.000000 1.000000
vn 0.000000 1.000000 0.000000
vn 0.000000 -1.000000 0.000000
vn 1.000000 0.000000 0.000000
vn -1.000000 0.000000 0.000000
usemtl initialShadingGroup
s 1
f 17/28/13 18/29/13 19/30/13 20/31/13
f 21/32/14 22/33/14 23/34/14 24/35/14
f 20/31/15 19/30/15 24/36/15 23/37/15
f 22/34/16 21/31/16 18/37/16 17/38/16
f 22/33/17 17/28/17 20/31/17 23/34/17
f 18/29/18 21/39/18 24/40/18 19/30/18
o tank3
v 0.125000 0.574911 0.687500
v -0.068125 0.574911 0.687500
v -0.068125 0.887411 0.687500
v 0.125000 0.887411 0.687500
v -0.068125 0.574911 0.875000
v 0.125000 0.574911 0.875000
v 0.125000 0.887411 0.875000
v -0.068125 0.887411 0.875000
vt 0.484375 0.625000
vt 0.511719 0.625000
vt 0.511719 0.699219
vt 0.484375 0.699219
vt 0.539062 0.625000
vt 0.562500 0.625000
vt 0.562500 0.699219
vt 0.539062 0.699219
vt 0.511719 0.742188
vt 0.484375 0.742188
vt 0.539062 0.742188
vt 0.457031 0.625000
vt 0.457031 0.699219
vn 0.000000 0.000000 -1.000000
vn 0.000000 0.000000 1.000000
vn 0.000000 1.000000 0.000000
vn 0.000000 -1.000000 0.000000
vn 1.000000 0.000000 0.000000
vn -1.000000 0.000000 0.000000
usemtl initialShadingGroup
s 1
f 25/41/19 26/42/19 27/43/19 28/44/19
f 29/45/20 30/46/20 31/47/20 32/48/20
f 28/44/21 27/43/21 32/49/21 31/50/21
f 30/43/22 29/48/22 26/51/22 25/49/22
f 30/52/23 25/41/23 28/44/23 31/53/23
f 26/42/24 29/45/24 32/48/24 27/43/24
o screen2
v 0.375000 1.201995 0.125000
v -0.138333 1.201995 0.125000
v -0.138333 1.201994 0.812500
v 0.375000 1.201994 0.812500
vt 0.089844 0.617187
vt 0.214844 0.617187
vt 0.214844 0.710938
vt 0.089844 0.710938
vn 0.000000 1.000000 0.000000
usemtl initialShadingGroup
s 1
f 33/54/25 34/55/25 35/56/25 36/57/25
o wireshort1
v 0.062500 0.449911 0.750000
v -0.001667 0.449911 0.750000
v -0.001667 0.574911 0.750000
v 0.062500 0.574911 0.750000
v -0.001667 0.449911 0.812500
v 0.062500 0.449911 0.812500
v 0.062500 0.574911 0.812500
v -0.001667 0.574911 0.812500
vt 0.640625 0.742188
vt 0.632812 0.742188
vt 0.632812 0.773438
vt 0.640625 0.773438
vt 0.656250 0.742188
vt 0.648438 0.742188
vt 0.648438 0.773438
vt 0.656250 0.773438
vt 0.632812 0.789062
vt 0.640625 0.789062
vt 0.648438 0.789062
vt 0.625000 0.742188
vt 0.625000 0.773438
vn 0.000000 0.000000 -1.000000
vn 0.000000 0.000000 1.000000
vn 0.000000 1.000000 0.000000
vn 0.000000 -1.000000 0.000000
vn 1.000000 0.000000 0.000000
vn -1.000000 0.000000 0.000000
usemtl initialShadingGroup
s 1
f 37/58/26 38/59/26 39/60/26 40/61/26
f 41/62/27 42/63/27 43/64/27 44/65/27
f 40/61/28 39/60/28 44/66/28 43/67/28
f 42/64/29 41/61/29 38/67/29 37/68/29
f 42/63/30 37/58/30 40/61/30 43/64/30
f 38/59/31 41/69/31 44/70/31 39/60/31
o tank1
v 0.125000 0.574911 0.062500
v -0.068125 0.574911 0.062500
v -0.068125 0.887411 0.062500
v 0.125000 0.887411 0.062500
v -0.068125 0.574911 0.250000
v 0.125000 0.574911 0.250000
v 0.125000 0.887411 0.250000
v -0.068125 0.887411 0.250000
vt 0.484375 0.625000
vt 0.511719 0.625000
vt 0.511719 0.699219
vt 0.484375 0.699219
vt 0.539062 0.625000
vt 0.562500 0.625000
vt 0.562500 0.699219
vt 0.539062 0.699219
vt 0.511719 0.742188
vt 0.484375 0.742188
vt 0.539062 0.742188
vt 0.457031 0.625000
vt 0.457031 0.699219
vn 0.000000 0.000000 -1.000000
vn 0.000000 -0.000000 1.000000
vn 0.000000 1.000000 0.000000
vn 0.000000 -1.000000 0.000000
vn 1.000000 0.000000 0.000000
vn -1.000000 0.000000 0.000000
usemtl initialShadingGroup
s 1
f 45/71/32 46/72/32 47/73/32 48/74/32
f 49/75/33 50/76/33 51/77/33 52/78/33
f 48/74/34 47/73/34 52/79/34 51/80/34
f 50/73/35 49/78/35 46/81/35 45/79/35
f 50/82/36 45/71/36 48/74/36 51/83/36
f 46/72/37 49/75/37 52/78/37 47/73/37
o footbase
v 0.883333 0.012411 0.125000
v 0.113333 0.012411 0.125000
v 0.113333 0.137411 0.125000
v 0.883333 0.137411 0.125000
v 0.113333 0.012411 0.812500
v 0.883333 0.012411 0.812500
v 0.883333 0.137411 0.812500
v 0.113333 0.137411 0.812500
vt 0.207031 0.039062
vt 0.101562 0.039062
vt 0.101562 0.070312
vt 0.207031 0.070312
vt 0.414062 0.039062
vt 0.304688 0.039062
vt 0.304688 0.070312
vt 0.414062 0.070312
vt 0.101562 0.226562
vt 0.207031 0.226562
vt 0.312500 0.070312
vt 0.312500 0.226562
vt 0.000000 0.039062
vt 0.000000 0.070312
vn 0.000000 0.000000 -1.000000
vn 0.000000 0.000000 1.000000
vn 0.000000 1.000000 0.000000
vn 0.000000 -1.000000 -0.000000
vn 1.000000 0.000000 0.000000
vn -1.000000 0.000000 0.000000
usemtl initialShadingGroup
s 1
f 53/84/38 54/85/38 55/86/38 56/87/38
f 57/88/39 58/89/39 59/90/39 60/91/39
f 56/87/40 55/86/40 60/92/40 59/93/40
f 58/94/41 57/87/41 54/93/41 53/95/41
f 58/89/42 53/84/42 56/87/42 59/90/42
f 54/85/43 57/96/43 60/97/43 55/86/43
o cube
v 0.719790 1.475799 0.500000
v 0.537710 1.299024 0.500000
v 0.408960 1.424024 0.323223
v 0.591040 1.600799 0.323223
v 0.408960 1.424024 0.676777
v 0.591040 1.600799 0.676777
v 0.462290 1.725799 0.500000
v 0.280210 1.549024 0.500000
vt 0.929688 0.597656
vt 0.894531 0.597656
vt 0.894531 0.656250
vt 0.929688 0.656250
vt 1.000000 0.597656
vt 0.964844 0.597656
vt 0.964844 0.656250
vt 1.000000 0.656250
vt 0.894531 0.710938
vt 0.929688 0.710938
vt 0.964844 0.710938
vt 0.859375 0.597656
vt 0.859375 0.656250
vn 0.489000 -0.503600 -0.712200
vn -0.489000 0.503600 0.712200
vn -0.489000 0.503600 -0.712200
vn 0.489000 -0.503600 0.712200
vn 0.696600 0.717500 0.000000
vn -0.696600 -0.717500 0.000000
usemtl initialShadingGroup
s 1
f 61/98/44 62/99/44 63/100/44 64/101/44
f 65/102/45 66/103/45 67/104/45 68/105/45
f 64/101/46 63/100/46 68/106/46 67/107/46
f 66/104/47 65/101/47 62/107/47 61/108/47
f 66/103/48 61/98/48 64/101/48 67/104/48
f 62/99/49 65/109/49 68/110/49 63/100/49
o tank2
v 0.125000 0.574911 0.375000
v -0.068125 0.574911 0.375000
v -0.068125 0.887411 0.375000
v 0.125000 0.887411 0.375000
v -0.068125 0.574911 0.562500
v 0.125000 0.574911 0.562500
v 0.125000 0.887411 0.562500
v -0.068125 0.887411 0.562500
vt 0.484375 0.625000
vt 0.511719 0.625000
vt 0.511719 0.699219
vt 0.484375 0.699219
vt 0.539062 0.625000
vt 0.562500 0.625000
vt 0.562500 0.699219
vt 0.539062 0.699219
vt 0.511719 0.742188
vt 0.484375 0.742188
vt 0.539062 0.742188
vt 0.457031 0.625000
vt 0.457031 0.699219
vn 0.000000 0.000000 -1.000000
vn 0.000000 -0.000000 1.000000
vn 0.000000 1.000000 0.000000
vn 0.000000 -1.000000 0.000000
vn 1.000000 0.000000 0.000000
vn -1.000000 0.000000 0.000000
usemtl initialShadingGroup
s 1
f 69/111/50 70/112/50 71/113/50 72/114/50
f 73/115/51 74/116/51 75/117/51 76/118/51
f 72/114/52 71/113/52 76/119/52 75/120/52
f 74/113/53 73/118/53 70/121/53 69/119/53
f 74/122/54 69/111/54 72/114/54 75/123/54
f 70/112/55 73/115/55 76/118/55 71/113/55
o wireshort2
v 0.187500 0.387411 0.437500
v 0.059167 0.387411 0.437500
v 0.059167 0.449911 0.437500
v 0.187500 0.449911 0.437500
v 0.059167 0.387411 0.500000
v 0.187500 0.387411 0.500000
v 0.187500 0.449911 0.500000
v 0.059167 0.449911 0.500000
vt 0.642857 0.785714
vt 0.625000 0.785714
vt 0.625000 0.800000
vt 0.642857 0.800000
vt 0.669643 0.785714
vt 0.651786 0.785714
vt 0.651786 0.800000
vt 0.669643 0.800000
vt 0.625000 0.814286
vt 0.642857 0.814286
vt 0.660714 0.800000
vt 0.660714 0.814286
vt 0.616071 0.785714
vt 0.616071 0.800000
vn 0.000000 0.000000 -1.000000
vn 0.000000 0.000000 1.000000
vn 0.000000 1.000000 0.000000
vn 0.000000 -1.000000 0.000000
vn 1.000000 0.000000 0.000000
vn -1.000000 0.000000 0.000000
usemtl initialShadingGroup
s 1
f 77/124/56 78/125/56 79/126/56 80/127/56
f 81/128/57 82/129/57 83/130/57 84/131/57
f 80/127/58 79/126/58 84/132/58 83/133/58
f 82/134/59 81/127/59 78/133/59 77/135/59
f 82/129/60 77/124/60 80/127/60 83/130/60
f 78/125/61 81/136/61 84/137/61 79/126/61
o fatfoot2
v 0.375000 0.012411 0.312500
v 0.631667 0.012411 0.312500
v 0.631667 0.199911 0.312500
v 0.375000 0.199911 0.312500
v 0.631667 0.012411 0.062500
v 0.375000 0.012411 0.062500
v 0.375000 0.199911 0.062500
v 0.631667 0.199911 0.062500
vt 0.929688 0.710938
vt 0.894531 0.710938
vt 0.894531 0.753906
vt 0.929688 0.753906
vt 1.000000 0.710938
vt 0.964844 0.710938
vt 0.964844 0.753906
vt 1.000000 0.753906
vt 0.894531 0.812500
vt 0.929688 0.812500
vt 0.964844 0.812500
vt 0.859375 0.710938
vt 0.859375 0.753906
vn 0.000000 0.000000 1.000000
vn 0.000000 0.000000 -1.000000
vn 0.000000 1.000000 0.000000
vn 0.000000 -1.000000 -0.000000
vn -1.000000 0.000000 0.000000
vn 1.000000 0.000000 0.000000
usemtl initialShadingGroup
s 1
f 85/138/62 86/139/62 87/140/62 88/141/62
f 89/142/63 90/143/63 91/144/63 92/145/63
f 88/141/64 87/140/64 92/146/64 91/147/64
f 90/144/65 89/141/65 86/147/65 85/148/65
f 90/143/66 85/138/66 88/141/66 91/144/66
f 86/139/67 89/149/67 92/150/67 87/140/67
o foot1
v 0.937500 0.012411 0.375000
v 0.680833 0.012411 0.375000
v 0.680833 0.199911 0.375000
v 0.937500 0.199911 0.375000
v 0.680833 0.012411 0.562500
v 0.937500 0.012411 0.562500
v 0.937500 0.199911 0.562500
v 0.680833 0.199911 0.562500
vt 0.796875 0.726562
vt 0.761719 0.726562
vt 0.761719 0.769531
vt 0.796875 0.769531
vt 0.859375 0.726562
vt 0.824219 0.726562
vt 0.824219 0.769531
vt 0.859375 0.769531
vt 0.761719 0.812500
vt 0.796875 0.812500
vt 0.832031 0.769531
vt 0.832031 0.812500
vt 0.734375 0.726562
vt 0.734375 0.769531
vn 0.000000 0.000000 -1.000000
vn 0.000000 0.000000 1.000000
vn 0.000000 1.000000 0.000000
vn 0.000000 -1.000000 -0.000000
vn 1.000000 0.000000 0.000000
vn -1.000000 0.000000 0.000000
usemtl initialShadingGroup
s 1
f 93/151/68 94/152/68 95/153/68 96/154/68
f 97/155/69 98/156/69 99/157/69 100/158/69
f 96/154/70 95/153/70 100/159/70 99/160/70
f 98/161/71 97/154/71 94/160/71 93/162/71
f 98/156/72 93/151/72 96/154/72 99/157/72
f 94/152/73 97/163/73 100/164/73 95/153/73
o middletable
v 1.071875 0.637411 -0.062500
v -0.022500 0.637411 -0.062500
v -0.022500 0.824911 -0.062500
v 1.071875 0.824911 -0.062500
v -0.022500 0.637411 1.062500
v 1.071875 0.637411 1.062500
v 1.071875 0.824911 1.062500
v -0.022500 0.824911 1.062500
vt 0.519531 0.000000
vt 0.671875 0.000000
vt 0.671875 0.039062
vt 0.519531 0.039062
vt 0.832031 0.000000
vt 0.984375 0.000000
vt 0.984375 0.039062
vt 0.832031 0.039062
vt 0.671875 0.296875
vt 0.519531 0.296875
vt 0.824219 0.039062
vt 0.824219 0.296875
vt 0.359375 0.000000
vt 0.359375 0.039062
vn 0.000000 0.000000 -1.000000
vn 0.000000 0.000000 1.000000
vn 0.000000 1.000000 0.000000
vn 0.000000 -1.000000 0.000000
vn 1.000000 -0.000000 0.000000
vn -1.000000 -0.000000 0.000000
usemtl initialShadingGroup
s 1
f 101/165/74 102/166/74 103/167/74 104/168/74
f 105/169/75 106/170/75 107/171/75 108/172/75
f 104/168/76 103/167/76 108/173/76 107/174/76
f 106/167/77 105/175/77 102/176/77 101/173/77
f 106/177/78 101/165/78 104/168/78 107/178/78
f 102/166/79 105/169/79 108/172/79 103/167/79
o uppertable
v 1.000000 0.574911 0.000000
v 0.230000 0.574911 0.000000
v 0.230000 0.887411 0.000000
v 1.000000 0.887411 0.000000
v 0.230000 0.574911 1.000000
v 1.000000 0.574911 1.000000
v 1.000000 0.887411 1.000000
v 0.230000 0.887411 1.000000
vt 0.750000 0.296875
vt 0.644531 0.296875
vt 0.644531 0.371094
vt 0.750000 0.371094
vt 1.000000 0.296875
vt 0.894531 0.296875
vt 0.894531 0.371094
vt 1.000000 0.371094
vt 0.644531 0.597656
vt 0.750000 0.597656
vt 0.859375 0.371094
vt 0.859375 0.597656
vt 0.500000 0.296875
vt 0.500000 0.371429
vn 0.000000 0.000000 -1.000000
vn 0.000000 0.000000 1.000000
vn 0.000000 1.000000 0.000000
vn 0.000000 -1.000000 0.000000
vn 1.000000 0.000000 0.000000
vn -1.000000 0.000000 0.000000
usemtl initialShadingGroup
s 1
f 109/179/80 110/180/80 111/181/80 112/182/80
f 113/183/81 114/184/81 115/185/81 116/186/81
f 112/182/82 111/181/82 116/187/82 115/188/82
f 114/189/83 113/182/83 110/188/83 109/190/83
f 114/184/84 109/179/84 112/182/84 115/185/84
f 110/180/85 113/191/85 116/192/85 111/181/85
o screen3
v 1.104375 1.295537 0.062500
v 0.396250 1.295537 0.062500
v 0.396250 1.295537 0.937500
v 1.104375 1.295537 0.937500
vt 0.136719 0.785156
vt 0.234375 0.785156
vt 0.234375 0.980469
vt 0.136719 0.980469
vn 0.000000 1.000000 0.000000
usemtl initialShadingGroup
s 1
f 117/193/86 118/194/86 119/195/86 120/196/86
o wireshort3
v 0.062500 0.449911 0.125000
v -0.001667 0.449911 0.125000
v -0.001667 0.574911 0.125000
v 0.062500 0.574911 0.125000
v -0.001667 0.449911 0.187500
v 0.062500 0.449911 0.187500
v 0.062500 0.574911 0.187500
v -0.001667 0.574911 0.187500
vt 0.651786 0.742857
vt 0.642857 0.742857
vt 0.642857 0.771429
vt 0.651786 0.771429
vt 0.669643 0.742857
vt 0.660714 0.742857
vt 0.660714 0.771429
vt 0.669643 0.771429
vt 0.642857 0.785714
vt 0.651786 0.785714
vt 0.660714 0.785714
vt 0.633929 0.742857
vt 0.633929 0.771429
vn 0.000000 0.000000 -1.000000
vn 0.000000 0.000000 1.000000
vn 0.000000 1.000000 0.000000
vn 0.000000 -1.000000 -0.000000
vn 1.000000 0.000000 0.000000
vn -1.000000 0.000000 0.000000
usemtl initialShadingGroup
s 1
f 121/197/87 122/198/87 123/199/87 124/200/87
f 125/201/88 126/202/88 127/203/88 128/204/88
f 124/200/89 123/199/89 128/205/89 127/206/89
f 126/203/90 125/200/90 122/206/90 121/207/90
f 126/202/91 121/197/91 124/200/91 127/203/91
f 122/198/92 125/208/92 128/209/92 123/199/92
o particles
v 0.687500 0.137411 0.312500
v 0.302500 0.137411 0.312500
v 0.302500 0.574911 0.312500
v 0.687500 0.574911 0.312500
v 0.302500 0.137411 0.625000
v 0.687500 0.137411 0.625000
v 0.687500 0.574911 0.625000
v 0.302500 0.574911 0.625000
vt 0.902344 0.828125
vt 0.847656 0.828125
vt 0.847656 0.925781
vt 0.902344 0.925781
vt 1.000000 0.828125
vt 0.949219 0.828125
vt 0.949219 0.925781
vt 1.000000 0.925781
vt 0.847656 1.000000
vt 0.902344 1.000000
vt 0.957031 0.925781
vt 0.957031 1.000000
vt 0.804688 0.828125
vt 0.804688 0.925781
vn 0.000000 0.000000 -1.000000
vn 0.000000 0.000000 1.000000
vn 0.000000 1.000000 0.000000
vn 0.000000 -1.000000 -0.000000
vn 1.000000 0.000000 0.000000
vn -1.000000 0.000000 0.000000
usemtl initialShadingGroup
s 1
f 129/210/93 130/211/93 131/212/93 132/213/93
f 133/214/94 134/215/94 135/216/94 136/217/94
f 132/213/95 131/212/95 136/218/95 135/219/95
f 134/220/96 133/213/96 130/219/96 129/221/96
f 134/215/97 129/210/97 132/213/97 135/216/97
f 130/211/98 133/222/98 136/223/98 131/212/98
o backsupport
v 0.312500 0.137411 0.250000
v 0.184167 0.137411 0.250000
v 0.184167 0.637411 0.250000
v 0.312500 0.637411 0.250000
v 0.184167 0.137411 0.687500
v 0.312500 0.137411 0.687500
v 0.312500 0.637411 0.687500
v 0.184167 0.637411 0.687500
vt 0.421875 0.296875
vt 0.402344 0.296875
vt 0.402344 0.414062
vt 0.421875 0.414062
vt 0.500000 0.296875
vt 0.484375 0.296875
vt 0.484375 0.414062
vt 0.500000 0.414062
vt 0.402344 0.515625
vt 0.421875 0.515625
vt 0.441406 0.414062
vt 0.441406 0.515625
vt 0.339844 0.296875
vt 0.339844 0.414062
vn 0.000000 0.000000 -1.000000
vn 0.000000 0.000000 1.000000
vn 0.000000 1.000000 0.000000
vn 0.000000 -1.000000 -0.000000
vn 1.000000 0.000000 0.000000
vn -1.000000 0.000000 0.000000
usemtl initialShadingGroup
s 1
f 137/224/99 138/225/99 139/226/99 140/227/99
f 141/228/100 142/229/100 143/230/100 144/231/100
f 140/227/101 139/226/101 144/232/101 143/233/101
f 142/234/102 141/227/102 138/233/102 137/235/102
f 142/229/103 137/224/103 140/227/103 143/230/103
f 138/225/104 141/236/104 144/237/104 139/226/104
o screen1
v 0.875000 1.358037 0.687500
v -0.026250 1.358037 0.687500
v -0.026250 1.358036 1.125000
v 0.875000 1.358036 1.125000
vt 0.171875 0.539062
vt 0.101562 0.539062
vt 0.101562 0.386718
vt 0.171875 0.386718
vn 0.000000 1.000000 0.000000
usemtl initialShadingGroup
s 1
f 145/238/105 146/239/105 147/240/105 148/241/105