# This file uses centimeters as units for non-parametric coordinates.

mtllib mps_boots.mtl
g default
v 0.036693 -0.155665 -2.317372
v -4.278701 -0.155665 -2.537469
v -0.224660 5.036316 2.806901
v -4.540053 5.036316 2.586804
v 0.069546 3.273812 -2.961529
v -4.245847 3.273812 -3.181626
v -4.546938 3.308486 2.721785
v -0.231544 3.308486 2.941882
v -0.834607 0.101970 6.480335
v -4.307010 0.101970 6.303234
v -4.293207 1.546936 6.032610
v -0.820805 1.546936 6.209712
vt 0.819810 0.412004
vt 0.825360 0.423488
vt 0.854460 0.406394
vt 0.852766 0.419116
vt 0.977811 0.391525
vt 0.919757 0.391683
vt 0.977924 0.433065
vt 0.919870 0.433223
vt 0.956820 0.488897
vt 0.967177 0.455404
vt 0.915989 0.475181
vt 0.925997 0.443507
vt 0.864048 0.465959
vt 0.866440 0.449970
vt 0.828449 0.471225
vt 0.821685 0.456740
vt 0.782244 0.493925
vt 0.764550 0.468627
vt 0.969841 0.356932
vt 0.909915 0.293073
vt 0.937281 0.384687
vt 0.883716 0.315406
vn -0.050064 0.184317 0.981591
vn 0.281682 0.419662 0.862867
vn -0.050064 0.184317 0.981591
vn -0.361550 0.652692 0.665789
vn 0.402485 0.490936 0.772650
vn 0.716701 0.676320 -0.170091
vn -0.450035 0.878624 0.159651
vn -0.886618 0.427742 -0.175914
vn 0.050059 -0.184833 -0.981494
vn 0.050059 -0.184833 -0.981494
vn 0.050059 -0.184833 -0.981494
vn 0.050059 -0.184833 -0.981494
vn -0.841555 0.202122 0.500931
vn -0.998944 -0.037895 -0.025988
vn 0.796364 0.368644 0.479485
vn 0.996404 -0.037895 0.075780
vn -0.001485 -0.999575 0.029125
vn -0.001485 -0.999575 0.029125
vn -0.001485 -0.999575 0.029125
vn -0.001485 -0.999575 0.029125
vn -0.998691 -0.024697 0.044792
vn 0.988952 -0.024698 0.146168
s 1
g boots1
usemtl initialShadingGroup
f 9/1/1 12/2/2 10/3/3
f 10/3/3 12/2/2 11/4/4
f 3/5/5 5/6/6 4/7/7
f 4/7/7 5/6/6 6/8/8
s 3
f 5/9/9 1/10/10 6/11/11
f 6/11/11 1/10/10 2/12/12
s 1
f 4/13/7 6/11/8 7/14/13
f 7/14/13 6/11/8 2/12/14
f 3/15/5 8/16/15 5/17/6
f 5/17/6 8/16/15 1/18/16
f 8/16/15 3/15/5 7/14/13
f 7/14/13 3/15/5 4/13/7
s 4
f 1/19/17 9/20/18 2/21/19
f 2/21/19 9/20/18 10/22/20
s 1
f 2/12/14 10/3/21 7/14/13
f 7/14/13 10/3/21 11/4/4
f 7/14/13 11/4/4 8/16/15
f 8/16/15 11/4/4 12/2/2
f 12/2/2 9/1/22 8/16/15
f 8/16/15 9/1/22 1/18/16
g default
v -0.036693 -0.155665 -2.317372
v 4.278701 -0.155665 -2.537469
v 0.224660 5.036316 2.806901
v 4.540053 5.036316 2.586804
v -0.069546 3.273812 -2.961529
v 4.245847 3.273812 -3.181626
v 4.546938 3.308486 2.721785
v 0.231544 3.308486 2.941882
v 0.834607 0.101970 6.480335
v 4.307010 0.101970 6.303234
v 4.293207 1.546936 6.032610
v 0.820805 1.546936 6.209712
vt 0.819810 0.412004
vt 0.854460 0.406394
vt 0.825360 0.423488
vt 0.852766 0.419116
vt 0.977811 0.391525
vt 0.977924 0.433065
vt 0.919757 0.391683
vt 0.919870 0.433223
vt 0.956820 0.488897
vt 0.915989 0.475181
vt 0.967177 0.455404
vt 0.925997 0.443507
vt 0.866440 0.449970
vt 0.864048 0.465959
vt 0.764550 0.468627
vt 0.821685 0.456740
vt 0.782244 0.493925
vt 0.828449 0.471225
vt 0.969841 0.356932
vt 0.937281 0.384687
vt 0.909915 0.293073
vt 0.883716 0.315406
vn 0.050064 0.184317 0.981591
vn 0.050064 0.184317 0.981591
vn -0.281682 0.419662 0.862867
vn 0.361550 0.652692 0.665789
vn -0.402485 0.490936 0.772650
vn 0.450035 0.878624 0.159651
vn -0.716701 0.676320 -0.170091
vn 0.886618 0.427742 -0.175914
vn -0.050059 -0.184833 -0.981494
vn -0.050059 -0.184833 -0.981494
vn -0.050059 -0.184833 -0.981494
vn -0.050059 -0.184833 -0.981494
vn 0.998944 -0.037895 -0.025988
vn 0.841555 0.202122 0.500931
vn -0.996404 -0.037895 0.075780
vn -0.796364 0.368644 0.479485
vn 0.001485 -0.999575 0.029125
vn 0.001485 -0.999575 0.029125
vn 0.001485 -0.999575 0.029125
vn 0.001485 -0.999575 0.029125
vn 0.998691 -0.024698 0.044792
vn -0.988952 -0.024698 0.146168
s 1
g boots2
usemtl initialShadingGroup
f 21/23/23 22/24/24 24/25/25
f 24/25/25 22/24/24 23/26/26
f 15/27/27 16/28/28 17/29/29
f 17/29/29 16/28/28 18/30/30
s 3
f 17/31/31 18/32/32 13/33/33
f 13/33/33 18/32/32 14/34/34
s 1
f 14/34/35 18/32/30 19/35/36
f 19/35/36 18/32/30 16/36/28
f 13/37/37 20/38/38 17/39/29
f 17/39/29 20/38/38 15/40/27
f 20/38/38 19/35/36 15/40/27
f 15/40/27 19/35/36 16/36/28
s 5
f 13/41/39 14/42/40 21/43/41
f 21/43/41 14/42/40 22/44/42
s 1
f 14/34/35 19/35/36 22/24/43
f 22/24/43 19/35/36 23/26/26
f 19/35/36 20/38/38 23/26/26
f 23/26/26 20/38/38 24/25/25
f 13/37/37 21/23/44 20/38/38
f 20/38/38 21/23/44 24/25/25
