# Blender v2.78 (sub 0) OBJ File: ''
# www.blender.org
mtllib lightBase.mtl
o poplight
v -3.433100 2.370300 -3.433100
v -3.433100 2.730800 -3.433100
v -3.433100 2.730800 3.433100
v -3.433100 2.370300 3.433100
v 3.433100 2.730800 3.433100
v 3.433100 2.370300 3.433100
v 3.433100 2.730800 -3.433100
v 3.433100 2.370300 -3.433100
v 5.719900 2.730800 5.719900
v -5.719900 2.730800 5.719900
v -5.719900 1.383100 5.719900
v 5.719900 1.383100 5.719900
v 5.719900 2.730800 -5.719900
v 5.719900 1.383100 -5.719900
v -5.719900 2.730800 -5.719900
v -5.719900 1.383100 -5.719900
v 6.450700 1.383100 -6.450700
v 6.450700 1.383100 6.450700
v 6.450700 -1.347700 6.450700
v 6.450700 -1.347700 -6.450700
v -6.450700 1.383100 -6.450700
v -6.450700 -1.347700 -6.450700
v -6.450700 1.383100 6.450700
v -6.450700 -1.347700 6.450700
vt 0.9868 0.0000
vt 1.0000 0.0000
vt 1.0000 0.2661
vt 0.9868 0.2661
vt 0.9811 0.7095
vt 0.9680 0.7095
vt 0.9680 0.4434
vt 0.9811 0.4434
vt 0.9943 0.7095
vt 0.9811 0.7095
vt 0.9811 0.4434
vt 0.9943 0.4434
vt 0.9680 0.7095
vt 0.9811 0.7095
vt 0.9811 0.9756
vt 0.9680 0.9756
vt 0.9680 0.4434
vt 0.9680 0.8867
vt 0.9188 0.8867
vt 0.9188 0.4434
vt 0.9868 0.0000
vt 0.9868 0.4434
vt 0.9377 0.4434
vt 0.9377 0.0000
vt 0.8885 0.4434
vt 0.8885 0.0000
vt 0.9377 0.4434
vt 0.9188 0.4434
vt 0.9188 0.8867
vt 0.8696 0.8867
vt 0.8696 0.4434
vt 0.8696 0.4434
vt 0.8696 0.9434
vt 0.7699 0.9434
vt 0.7699 0.4434
vt 0.5706 0.9434
vt 0.5706 0.4434
vt 0.6703 0.4434
vt 0.6703 0.9434
vt 0.5706 0.4434
vt 0.4709 0.9434
vt 0.4709 0.4434
vt 0.4709 0.5000
vt 0.4709 1.0000
vt 0.0000 1.0000
vt 0.0000 0.5000
vt 0.6703 0.9434
vt 0.6703 0.4434
vt 0.7699 0.4434
vt 0.7699 0.9434
vt 0.4709 0.4434
vt 0.5544 0.3547
vt 0.8050 0.3547
vt 0.8050 0.0886
vt 0.4709 0.0000
vt 0.5544 0.0886
vt 0.0000 0.5000
vt 0.0000 0.0000
vt 0.0267 0.0283
vt 0.0267 0.4717
vt 0.4709 0.5000
vt 0.4442 0.4717
vt 0.4709 0.0000
vt 0.4442 0.0283
vn 1.0000 -0.0000 0.0000
vn 0.0000 0.0000 -1.0000
vn -1.0000 0.0000 0.0000
vn 0.0000 -0.0000 1.0000
vn 0.0000 -1.0000 -0.0000
vn -0.0000 1.0000 0.0000
usemtl Material.001u
f 1/1/1 2/2/1 3/3/1 4/4/1
f 4/5/2 3/6/2 5/7/2 6/8/2
f 6/9/3 5/10/3 7/11/3 8/12/3
f 8/13/4 7/14/4 2/15/4 1/16/4
f 9/17/4 10/18/4 11/19/4 12/20/4
f 13/21/1 9/22/1 12/23/1 14/24/1
f 15/25/2 13/26/2 14/24/2 16/27/2
f 10/28/3 15/29/3 16/30/3 11/31/3
f 17/32/1 18/33/1 19/34/1 20/35/1
f 21/36/2 17/37/2 20/38/2 22/39/2
f 23/40/3 21/36/3 22/41/3 24/42/3
f 24/43/5 22/44/5 20/45/5 19/46/5
f 24/47/4 19/48/4 18/49/4 23/50/4
f 15/25/6 10/51/6 3/52/6 2/53/6
f 13/26/6 15/25/6 2/53/6 7/54/6
f 9/55/6 13/26/6 7/54/6 5/56/6
f 10/51/6 9/55/6 5/56/6 3/52/6
f 18/57/6 17/58/6 14/59/6 12/60/6
f 23/61/6 18/57/6 12/60/6 11/62/6
f 21/63/6 23/61/6 11/62/6 16/64/6
f 17/58/6 21/63/6 16/64/6 14/59/6
