# Blender v2.78 (sub 0) OBJ File: ''
# www.blender.org
mtllib luxCapacitor.mtl
o poplight001
v -3.433100 2.370300 3.433100
v 3.433100 2.370300 3.433100
v 3.433100 2.370300 -3.433100
v -3.433100 2.370300 -3.433100
vt 0.0293 0.0293
vt 0.4395 0.0293
vt 0.4395 0.4639
vt 0.0293 0.4639
vn 0.0000 1.0000 0.0000
usemtl LensMaterial
s 1
f 1/1/1 2/2/1 3/3/1 4/4/1
o poplight
v -3.433100 2.370300 -3.433100
v -3.433100 2.730800 -3.433100
v -3.433100 2.730800 3.433100
v -3.433100 2.370300 3.433100
v 3.433100 2.730800 3.433100
v 3.433100 2.370300 3.433100
v 3.433100 2.730800 -3.433100
v 3.433100 2.370300 -3.433100
v 5.719900 2.730800 5.719900
v -5.719900 2.730800 5.719900
v -5.719900 1.383100 5.719900
v 5.719900 1.383100 5.719900
v 5.719900 2.730800 -5.719900
v 5.719900 1.383100 -5.719900
v -5.719900 2.730800 -5.719900
v -5.719900 1.383100 -5.719900
v 6.450700 1.383100 -6.450700
v 6.450700 1.383100 6.450700
v 6.450700 -1.347700 6.450700
v 6.450700 -1.347700 -6.450700
v -6.450700 1.383100 -6.450700
v -6.450700 -1.347700 -6.450700
v -6.450700 1.383100 6.450700
v -6.450700 -1.347700 6.450700
vt 0.9868 0.0000
vt 1.0000 0.0000
vt 1.0000 0.2661
vt 0.9868 0.2661
vt 0.9811 0.7095
vt 0.9680 0.7095
vt 0.9680 0.4434
vt 0.9811 0.4434
vt 0.9943 0.7095
vt 0.9811 0.7095
vt 0.9811 0.4434
vt 0.9943 0.4434
vt 0.9680 0.7095
vt 0.9811 0.7095
vt 0.9811 0.9756
vt 0.9680 0.9756
vt 0.9680 0.4434
vt 0.9680 0.8867
vt 0.9188 0.8867
vt 0.9188 0.4434
vt 0.9868 0.0000
vt 0.9868 0.4434
vt 0.9377 0.4434
vt 0.9377 0.0000
vt 0.8885 0.4434
vt 0.8885 0.0000
vt 0.9377 0.4434
vt 0.9188 0.4434
vt 0.9188 0.8867
vt 0.8696 0.8867
vt 0.8696 0.4434
vt 0.8696 0.4434
vt 0.8696 0.9434
vt 0.7699 0.9434
vt 0.7699 0.4434
vt 0.5706 0.9434
vt 0.5706 0.4434
vt 0.6703 0.4434
vt 0.6703 0.9434
vt 0.5706 0.4434
vt 0.4709 0.9434
vt 0.4709 0.4434
vt 0.4709 0.5000
vt 0.4709 1.0000
vt 0.0000 1.0000
vt 0.0000 0.5000
vt 0.6703 0.9434
vt 0.6703 0.4434
vt 0.7699 0.4434
vt 0.7699 0.9434
vt 0.4709 0.4434
vt 0.5544 0.3547
vt 0.8050 0.3547
vt 0.8050 0.0886
vt 0.4709 0.0000
vt 0.5544 0.0886
vt 0.0000 0.5000
vt 0.0000 0.0000
vt 0.0267 0.0283
vt 0.0267 0.4717
vt 0.4709 0.5000
vt 0.4442 0.4717
vt 0.4709 0.0000
vt 0.4442 0.0283
vn 1.0000 -0.0000 0.0000
vn 0.0000 0.0000 -1.0000
vn -1.0000 0.0000 0.0000
vn 0.0000 -0.0000 1.0000
vn 0.0000 -1.0000 -0.0000
vn -0.0000 1.0000 0.0000
usemtl BaseMaterial
s 1
f 5/5/2 6/6/2 7/7/2 8/8/2
f 8/9/3 7/10/3 9/11/3 10/12/3
f 10/13/4 9/14/4 11/15/4 12/16/4
f 12/17/5 11/18/5 6/19/5 5/20/5
f 13/21/5 14/22/5 15/23/5 16/24/5
f 17/25/2 13/26/2 16/27/2 18/28/2
f 19/29/3 17/30/3 18/28/3 20/31/3
f 14/32/4 19/33/4 20/34/4 15/35/4
f 21/36/2 22/37/2 23/38/2 24/39/2
f 25/40/3 21/41/3 24/42/3 26/43/3
f 27/44/4 25/40/4 26/45/4 28/46/4
f 28/47/6 26/48/6 24/49/6 23/50/6
f 28/51/5 23/52/5 22/53/5 27/54/5
f 19/29/7 14/55/7 7/56/7 6/57/7
f 17/30/7 19/29/7 6/57/7 11/58/7
f 13/59/7 17/30/7 11/58/7 9/60/7
f 14/55/7 13/59/7 9/60/7 7/56/7
f 22/61/7 21/62/7 18/63/7 16/64/7
f 27/65/7 22/61/7 16/64/7 15/66/7
f 25/67/7 27/65/7 15/66/7 20/68/7
f 21/62/7 25/67/7 20/68/7 18/63/7
